<?xml version="1.0" encoding="utf-8"?>
<!-- Generator: Adobe Illustrator 16.0.0, SVG Export Plug-In . SVG Version: 6.00 Build 0)  -->
<!DOCTYPE svg PUBLIC "-//W3C//DTD SVG 1.1//EN" "http://www.w3.org/Graphics/SVG/1.1/DTD/svg11.dtd">
<svg version="1.1" id="图层_1" xmlns="http://www.w3.org/2000/svg" xmlns:xlink="http://www.w3.org/1999/xlink" x="0px" y="0px"
	 width="54px" height="38px" viewBox="0 0 54 38" enable-background="new 0 0 54 38" xml:space="preserve">
<path fill="#FFFFFF" d="M44.885,29.309c0,0.941-0.765,1.707-1.708,1.707H3.191c-0.944,0-1.708-0.766-1.708-1.707V3.41
	c0-0.943,0.764-1.708,1.708-1.708h39.986c0.943,0,1.708,0.765,1.708,1.708V29.309L44.885,29.309z"/>
<circle fill="#E70012" cx="23.655" cy="16.42" r="7.734"/>
<path fill="#0F60BE" d="M27.63,14.26c-4.27-0.747-4.375,3.094-4.696,3.576c-3.971,2.249-5.995-0.921-6.848-3.009
	c-0.108,0.516-0.167,1.049-0.167,1.595c0,4.27,3.462,7.732,7.736,7.732c3.422,0,6.32-2.221,7.34-5.303
	C30.745,16.136,29.671,14.349,27.63,14.26z"/>
<g>
	
		<rect x="8.884" y="3.669" transform="matrix(-0.8787 -0.4774 0.4774 -0.8787 14.2287 18.4778)" fill="#010101" width="1.156" height="7.524"/>
	
		<rect x="12.51" y="5.642" transform="matrix(-0.8782 -0.4782 0.4782 -0.8782 20.0841 23.9209)" fill="#010101" width="1.155" height="7.524"/>
	
		<rect x="10.697" y="4.656" transform="matrix(-0.8782 -0.4782 0.4782 -0.8782 17.1503 21.2007)" fill="#010101" width="1.155" height="7.523"/>
</g>
<g>
	
		<rect x="32.523" y="19.413" transform="matrix(-0.8787 -0.4773 0.4773 -0.8787 51.1282 59.3394)" fill="#010101" width="1.158" height="7.524"/>
	
		<rect x="36.147" y="21.382" transform="matrix(-0.8785 -0.4778 0.4778 -0.8785 56.9704 64.7812)" fill="#010101" width="1.153" height="7.526"/>
	
		<rect x="34.335" y="20.392" transform="matrix(-0.8783 -0.4781 0.4781 -0.8783 54.0276 62.0591)" fill="#010101" width="1.154" height="7.523"/>
</g>
<g>
	
		<rect x="8.803" y="22.117" transform="matrix(-0.7982 0.6024 -0.6024 -0.7982 32.4606 40.8838)" fill="#010101" width="1.157" height="7.525"/>
	
		<rect x="12.103" y="19.632" transform="matrix(-0.7991 0.6012 -0.6012 -0.7991 36.8789 34.4639)" fill="#010101" width="1.155" height="7.523"/>
	
		<rect x="10.458" y="20.878" transform="matrix(-0.8003 0.5997 -0.5997 -0.8003 34.6395 37.74)" fill="#010101" width="1.151" height="7.522"/>
</g>
<g>
	
		<rect x="32.714" y="6.747" transform="matrix(-0.7989 0.6015 -0.6015 -0.7989 66.2102 -1.1208)" fill="#010101" width="1.158" height="7.523"/>
	
		<rect x="36.011" y="4.27" transform="matrix(-0.7994 0.6008 -0.6008 -0.7994 70.6632 -7.5308)" fill="#010101" width="1.156" height="7.523"/>
	
		<rect x="34.363" y="5.506" transform="matrix(-0.7978 0.603 -0.603 -0.7978 68.4025 -4.4049)" fill="#010101" width="1.153" height="7.526"/>
</g>
<g>
	<rect x="17.748" y="27.703" fill="#D13419" width="34.932" height="2.291"/>
	<rect x="17.748" y="19.914" fill="#D13419" width="34.932" height="2.292"/>
	<rect x="17.748" y="31.596" fill="#D13419" width="34.932" height="2.293"/>
	<rect x="17.748" y="23.809" fill="#D13419" width="34.932" height="2.291"/>
	<rect x="17.748" y="16.021" fill="#D13419" width="34.932" height="2.291"/>
	<path fill="#D13419" d="M17.759,35.491c0.059,0.704,0.643,1.261,1.362,1.261h32.184c0.719,0,1.303-0.557,1.36-1.261H17.759z"/>
	<path fill="#D13419" d="M52.666,14.417c-0.059-0.705-0.643-1.26-1.361-1.26H19.122c-0.72,0-1.304,0.555-1.363,1.26H52.666z"/>
</g>
<path fill="#63A7DC" d="M35.154,26.1V13.273c0-0.04,0.01-0.076,0.014-0.116H19.122c-0.759,0-1.374,0.621-1.374,1.387v11.554h17.406
	V26.1z"/>
<g>
	<rect x="19.368" y="13.272" fill="#FFFFFF" width="1.546" height="1.546"/>
	<rect x="22.523" y="13.272" fill="#FFFFFF" width="1.546" height="1.546"/>
	<rect x="25.679" y="13.272" fill="#FFFFFF" width="1.545" height="1.546"/>
	<rect x="28.834" y="13.272" fill="#FFFFFF" width="1.546" height="1.546"/>
	<rect x="31.988" y="13.272" fill="#FFFFFF" width="1.547" height="1.546"/>
	<rect x="17.791" y="14.847" fill="#FFFFFF" width="1.546" height="1.546"/>
	<rect x="20.946" y="14.847" fill="#FFFFFF" width="1.547" height="1.546"/>
	<rect x="24.1" y="14.847" fill="#FFFFFF" width="1.546" height="1.546"/>
	<rect x="27.255" y="14.847" fill="#FFFFFF" width="1.546" height="1.546"/>
	<rect x="30.411" y="14.847" fill="#FFFFFF" width="1.546" height="1.546"/>
	<rect x="33.566" y="14.847" fill="#FFFFFF" width="1.547" height="1.546"/>
	<rect x="19.368" y="16.422" fill="#FFFFFF" width="1.546" height="1.546"/>
	<rect x="22.523" y="16.422" fill="#FFFFFF" width="1.546" height="1.546"/>
	<rect x="25.679" y="16.422" fill="#FFFFFF" width="1.545" height="1.546"/>
	<rect x="28.834" y="16.422" fill="#FFFFFF" width="1.546" height="1.546"/>
	<rect x="31.988" y="16.422" fill="#FFFFFF" width="1.547" height="1.546"/>
	<rect x="17.791" y="17.996" fill="#FFFFFF" width="1.546" height="1.546"/>
	<rect x="20.946" y="17.996" fill="#FFFFFF" width="1.547" height="1.546"/>
	<rect x="24.1" y="17.996" fill="#FFFFFF" width="1.546" height="1.546"/>
	<rect x="27.255" y="17.996" fill="#FFFFFF" width="1.546" height="1.546"/>
	<rect x="30.411" y="17.996" fill="#FFFFFF" width="1.546" height="1.546"/>
	<rect x="33.566" y="17.996" fill="#FFFFFF" width="1.547" height="1.546"/>
	<rect x="19.368" y="19.57" fill="#FFFFFF" width="1.546" height="1.547"/>
	<rect x="22.523" y="19.57" fill="#FFFFFF" width="1.546" height="1.547"/>
	<rect x="25.679" y="19.57" fill="#FFFFFF" width="1.545" height="1.547"/>
	<rect x="28.834" y="19.57" fill="#FFFFFF" width="1.546" height="1.547"/>
	<rect x="31.988" y="19.57" fill="#FFFFFF" width="1.547" height="1.547"/>
	<rect x="17.791" y="21.146" fill="#FFFFFF" width="1.546" height="1.545"/>
	<rect x="20.946" y="21.146" fill="#FFFFFF" width="1.547" height="1.545"/>
	<rect x="24.1" y="21.146" fill="#FFFFFF" width="1.546" height="1.545"/>
	<rect x="27.255" y="21.146" fill="#FFFFFF" width="1.546" height="1.545"/>
	<rect x="30.411" y="21.146" fill="#FFFFFF" width="1.546" height="1.545"/>
	<rect x="33.566" y="21.146" fill="#FFFFFF" width="1.547" height="1.545"/>
	<rect x="19.368" y="22.721" fill="#FFFFFF" width="1.546" height="1.547"/>
	<rect x="22.523" y="22.721" fill="#FFFFFF" width="1.546" height="1.547"/>
	<rect x="25.679" y="22.721" fill="#FFFFFF" width="1.545" height="1.547"/>
	<rect x="28.834" y="22.721" fill="#FFFFFF" width="1.546" height="1.547"/>
	<rect x="31.988" y="22.721" fill="#FFFFFF" width="1.547" height="1.547"/>
	<rect x="17.791" y="24.295" fill="#FFFFFF" width="1.546" height="1.546"/>
	<rect x="20.946" y="24.295" fill="#FFFFFF" width="1.547" height="1.546"/>
	<rect x="24.1" y="24.295" fill="#FFFFFF" width="1.546" height="1.546"/>
	<rect x="27.255" y="24.295" fill="#FFFFFF" width="1.546" height="1.546"/>
	<rect x="30.411" y="24.295" fill="#FFFFFF" width="1.546" height="1.546"/>
	<rect x="33.566" y="24.295" fill="#FFFFFF" width="1.547" height="1.546"/>
</g>
<g>
	<path fill="#FFFFFF" d="M52.721,35.402c0,0.76-0.618,1.376-1.377,1.376h-32.26c-0.76,0-1.376-0.616-1.376-1.376V14.507
		c0-0.759,0.617-1.376,1.376-1.376h32.26c0.759,0,1.377,0.617,1.377,1.376V35.402L52.721,35.402z"/>
	<g>
		<rect x="17.707" y="27.709" fill="#D13419" width="35.014" height="2.295"/>
		<rect x="17.707" y="19.902" fill="#D13419" width="35.014" height="2.296"/>
		<rect x="17.707" y="31.611" fill="#D13419" width="35.014" height="2.297"/>
		<rect x="17.707" y="23.805" fill="#D13419" width="35.014" height="2.297"/>
		<rect x="17.707" y="16" fill="#D13419" width="35.014" height="2.295"/>
		<path fill="#D13419" d="M17.717,35.516c0.06,0.705,0.644,1.263,1.366,1.263h32.258c0.721,0,1.309-0.558,1.365-1.263H17.717z"/>
		<path fill="#D13419" d="M52.709,14.392c-0.06-0.705-0.643-1.261-1.365-1.261h-32.26c-0.721,0-1.306,0.556-1.365,1.261H52.709z"/>
	</g>
	<path fill="#63A7DC" d="M35.155,26.102V13.246c0-0.041,0.008-0.076,0.012-0.115H19.083c-0.76,0-1.376,0.621-1.376,1.389v11.582
		H35.155z"/>
	<g>
		<rect x="19.331" y="13.244" fill="#FFFFFF" width="1.551" height="1.55"/>
		<rect x="22.493" y="13.244" fill="#FFFFFF" width="1.551" height="1.55"/>
		<rect x="25.656" y="13.244" fill="#FFFFFF" width="1.55" height="1.55"/>
		<rect x="28.818" y="13.244" fill="#FFFFFF" width="1.55" height="1.55"/>
		<rect x="31.98" y="13.244" fill="#FFFFFF" width="1.551" height="1.55"/>
		<rect x="17.75" y="14.823" fill="#FFFFFF" width="1.55" height="1.55"/>
		<rect x="20.913" y="14.823" fill="#FFFFFF" width="1.549" height="1.55"/>
		<rect x="24.075" y="14.823" fill="#FFFFFF" width="1.548" height="1.55"/>
		<rect x="27.236" y="14.823" fill="#FFFFFF" width="1.551" height="1.55"/>
		<rect x="30.401" y="14.823" fill="#FFFFFF" width="1.55" height="1.55"/>
		<rect x="33.561" y="14.823" fill="#FFFFFF" width="1.552" height="1.55"/>
		<rect x="19.331" y="16.401" fill="#FFFFFF" width="1.551" height="1.551"/>
		<rect x="22.493" y="16.401" fill="#FFFFFF" width="1.551" height="1.551"/>
		<rect x="25.656" y="16.401" fill="#FFFFFF" width="1.55" height="1.551"/>
		<rect x="28.818" y="16.401" fill="#FFFFFF" width="1.55" height="1.551"/>
		<rect x="31.98" y="16.401" fill="#FFFFFF" width="1.551" height="1.551"/>
		<rect x="17.75" y="17.98" fill="#FFFFFF" width="1.55" height="1.551"/>
		<rect x="20.913" y="17.98" fill="#FFFFFF" width="1.549" height="1.551"/>
		<rect x="24.075" y="17.98" fill="#FFFFFF" width="1.548" height="1.551"/>
		<rect x="27.236" y="17.98" fill="#FFFFFF" width="1.551" height="1.551"/>
		<rect x="30.401" y="17.98" fill="#FFFFFF" width="1.55" height="1.551"/>
		<rect x="33.561" y="17.98" fill="#FFFFFF" width="1.552" height="1.551"/>
		<rect x="19.331" y="19.558" fill="#FFFFFF" width="1.551" height="1.551"/>
		<rect x="22.493" y="19.558" fill="#FFFFFF" width="1.551" height="1.551"/>
		<rect x="25.656" y="19.558" fill="#FFFFFF" width="1.55" height="1.551"/>
		<rect x="28.818" y="19.558" fill="#FFFFFF" width="1.55" height="1.551"/>
		<rect x="31.98" y="19.558" fill="#FFFFFF" width="1.551" height="1.551"/>
		<rect x="17.75" y="21.136" fill="#FFFFFF" width="1.55" height="1.551"/>
		<rect x="20.913" y="21.136" fill="#FFFFFF" width="1.549" height="1.551"/>
		<rect x="24.075" y="21.136" fill="#FFFFFF" width="1.548" height="1.551"/>
		<rect x="27.236" y="21.136" fill="#FFFFFF" width="1.551" height="1.551"/>
		<rect x="30.401" y="21.136" fill="#FFFFFF" width="1.55" height="1.551"/>
		<rect x="33.561" y="21.136" fill="#FFFFFF" width="1.552" height="1.551"/>
		<rect x="19.331" y="22.717" fill="#FFFFFF" width="1.551" height="1.548"/>
		<rect x="22.493" y="22.717" fill="#FFFFFF" width="1.551" height="1.548"/>
		<rect x="25.656" y="22.717" fill="#FFFFFF" width="1.55" height="1.548"/>
		<rect x="28.818" y="22.717" fill="#FFFFFF" width="1.55" height="1.548"/>
		<rect x="31.98" y="22.717" fill="#FFFFFF" width="1.551" height="1.548"/>
		<rect x="17.75" y="24.294" fill="#FFFFFF" width="1.55" height="1.55"/>
		<rect x="20.913" y="24.294" fill="#FFFFFF" width="1.549" height="1.55"/>
		<rect x="24.075" y="24.294" fill="#FFFFFF" width="1.548" height="1.55"/>
		<rect x="27.236" y="24.294" fill="#FFFFFF" width="1.551" height="1.55"/>
		<rect x="30.401" y="24.294" fill="#FFFFFF" width="1.55" height="1.55"/>
		<rect x="33.561" y="24.294" fill="#FFFFFF" width="1.552" height="1.55"/>
	</g>
</g>
</svg>
