<?xml version="1.0" encoding="utf-8"?>
<!-- Generator: Adobe Illustrator 16.0.0, SVG Export Plug-In . SVG Version: 6.00 Build 0)  -->
<!DOCTYPE svg PUBLIC "-//W3C//DTD SVG 1.1//EN" "http://www.w3.org/Graphics/SVG/1.1/DTD/svg11.dtd">
<svg version="1.1" id="图层_1" xmlns="http://www.w3.org/2000/svg" xmlns:xlink="http://www.w3.org/1999/xlink" x="0px" y="0px"
	 width="54px" height="38px" viewBox="0 0 54 38" enable-background="new 0 0 54 38" xml:space="preserve">
<g>
	<path fill="#F80000" d="M44.876,29.303c0,0.943-0.765,1.711-1.707,1.711H3.189c-0.943,0-1.708-0.768-1.708-1.711V3.41
		c0-0.942,0.764-1.708,1.708-1.708h39.979c0.943,0,1.707,0.765,1.707,1.708L44.876,29.303L44.876,29.303z"/>
	<g>
		<path fill="#FFFFFF" d="M21.857,17.465c0,0-3.77,1.714-5.942-1.371c-0.152-0.152,0.077-0.267,0.19-0.152
			c0.116,0.114,2.019,2.857,5.791,1.105c0,0-2.362,0.114-2.933-1.143c0,0-0.991-4.342-3.543-3.961
			c-2.552,0.38-3.353-1.182-3.353-1.487c0-0.304-1.904,4.838,2.248,7.732C18.466,21.085,21.857,17.465,21.857,17.465z
			 M15.076,14.723l-0.038-0.8l0.572,0.609l0.61-0.304l-0.305,0.571l0.419,0.533l-0.763-0.151l-0.267,0.724l-0.151-0.686
			l-0.725-0.192L15.076,14.723z"/>
		<path fill="#FFFFFF" d="M21.304,16.29c0,0-2.786-3.065-0.512-6.076c0.098-0.192,0.276-0.01,0.203,0.134
			c-0.074,0.144-2.102,2.796,0.721,5.851c0,0-0.833-2.214,0.19-3.143c0,0,3.832-2.271,2.686-4.584
			c-1.143-2.313,0.099-3.553,0.39-3.646c0.291-0.093-5.188-0.333-6.673,4.504C16.822,14.17,21.304,16.29,21.304,16.29z
			 M21.353,8.474l0.488,0.523l0.75-0.281l-0.406,0.73l0.477,0.488l-0.637-0.115l-0.378,0.563L21.558,9.61l-0.771-0.032l0.607-0.355
			L21.353,8.474z"/>
		<path fill="#FFFFFF" d="M28.284,10.684c-5.058,0.166-5.608,5.094-5.608,5.094s1.994-3.63,5.581-2.458
			c0.216,0.03,0.099,0.258-0.062,0.235c-0.16-0.022-3.327-1.08-5.299,2.581c0,0,1.823-1.505,3.034-0.84c0,0,3.392,2.886,5.21,1.053
			c1.815-1.833,3.389-1.06,3.573-0.816C34.896,15.777,33.342,10.518,28.284,10.684z M29.436,14.387l-0.307,0.608l-0.096-0.64
			l-0.656-0.177l0.701-0.333l-0.219-0.74l0.531,0.459l0.692-0.281l-0.336,0.632l0.509,0.618L29.436,14.387z"/>
		<path fill="#FFFFFF" d="M23.641,16.518c0,0,4.066,0.793,4.041,4.567c0.037,0.212-0.216,0.171-0.243,0.015
			c-0.026-0.16,0.016-3.5-4.073-4.262c0,0,1.99,1.278,1.725,2.633c0,0-1.714,4.109,0.583,5.282c2.301,1.171,2.045,2.907,1.87,3.155
			c-0.177,0.249,4.358-2.831,2.658-7.6C28.503,15.54,23.641,16.518,23.641,16.518z M27.57,22.686l-0.436,0.674l-0.11-0.826
			l-0.674-0.105l0.58-0.289l-0.033-0.678l0.534,0.566l0.636-0.434l-0.273,0.646l0.479,0.574L27.57,22.686z"/>
		<path fill="#FFFFFF" d="M19.959,22.941c-0.19,0.101-0.231-0.151-0.089-0.229c0.143-0.074,3.327-1.083,2.768-5.204
			c0,0-0.589,2.29-1.959,2.462c0,0-4.441-0.338-4.832,2.215c-0.392,2.551-2.12,2.854-2.411,2.76
			c-0.292-0.088,4.057,3.253,8.051,0.143c3.993-3.109,1.541-7.417,1.541-7.417S23.55,21.779,19.959,22.941z M18.898,23.411
			l-0.397,0.635l-0.1-0.71l-0.775-0.2l0.751-0.362L18.266,22.1l0.456,0.461l0.633-0.244l-0.371,0.683l0.612,0.47L18.898,23.411z"/>
	</g>
</g>
<g>
	<path fill="#FFFFFF" d="M52.762,35.476c0,0.76-0.618,1.376-1.377,1.376h-32.26c-0.76,0-1.376-0.616-1.376-1.376V14.58
		c0-0.759,0.617-1.376,1.376-1.376h32.26c0.759,0,1.377,0.617,1.377,1.376V35.476L52.762,35.476z"/>
	<g>
		<rect x="17.748" y="27.782" fill="#D13419" width="35.014" height="2.295"/>
		<rect x="17.748" y="19.976" fill="#D13419" width="35.014" height="2.296"/>
		<rect x="17.748" y="31.685" fill="#D13419" width="35.014" height="2.297"/>
		<rect x="17.748" y="23.878" fill="#D13419" width="35.014" height="2.297"/>
		<rect x="17.748" y="16.073" fill="#D13419" width="35.014" height="2.295"/>
		<path fill="#D13419" d="M17.758,35.589c0.06,0.705,0.644,1.263,1.366,1.263h32.258c0.721,0,1.309-0.558,1.365-1.263H17.758z"/>
		<path fill="#D13419" d="M52.75,14.465c-0.06-0.705-0.643-1.261-1.365-1.261h-32.26c-0.721,0-1.306,0.556-1.365,1.261H52.75z"/>
	</g>
	<path fill="#63A7DC" d="M35.196,26.175V13.319c0-0.041,0.008-0.076,0.012-0.115H19.125c-0.76,0-1.376,0.621-1.376,1.389v11.582
		H35.196z"/>
	<g>
		<rect x="19.372" y="13.317" fill="#FFFFFF" width="1.551" height="1.55"/>
		<rect x="22.534" y="13.317" fill="#FFFFFF" width="1.551" height="1.55"/>
		<rect x="25.697" y="13.317" fill="#FFFFFF" width="1.55" height="1.55"/>
		<rect x="28.859" y="13.317" fill="#FFFFFF" width="1.55" height="1.55"/>
		<rect x="32.021" y="13.317" fill="#FFFFFF" width="1.551" height="1.55"/>
		<rect x="17.791" y="14.896" fill="#FFFFFF" width="1.55" height="1.55"/>
		<rect x="20.954" y="14.896" fill="#FFFFFF" width="1.549" height="1.55"/>
		<rect x="24.116" y="14.896" fill="#FFFFFF" width="1.548" height="1.55"/>
		<rect x="27.277" y="14.896" fill="#FFFFFF" width="1.551" height="1.55"/>
		<rect x="30.442" y="14.896" fill="#FFFFFF" width="1.55" height="1.55"/>
		<rect x="33.602" y="14.896" fill="#FFFFFF" width="1.552" height="1.55"/>
		<rect x="19.372" y="16.475" fill="#FFFFFF" width="1.551" height="1.551"/>
		<rect x="22.534" y="16.475" fill="#FFFFFF" width="1.551" height="1.551"/>
		<rect x="25.697" y="16.475" fill="#FFFFFF" width="1.55" height="1.551"/>
		<rect x="28.859" y="16.475" fill="#FFFFFF" width="1.55" height="1.551"/>
		<rect x="32.021" y="16.475" fill="#FFFFFF" width="1.551" height="1.551"/>
		<rect x="17.791" y="18.053" fill="#FFFFFF" width="1.55" height="1.551"/>
		<rect x="20.954" y="18.053" fill="#FFFFFF" width="1.549" height="1.551"/>
		<rect x="24.116" y="18.053" fill="#FFFFFF" width="1.548" height="1.551"/>
		<rect x="27.277" y="18.053" fill="#FFFFFF" width="1.551" height="1.551"/>
		<rect x="30.442" y="18.053" fill="#FFFFFF" width="1.55" height="1.551"/>
		<rect x="33.602" y="18.053" fill="#FFFFFF" width="1.552" height="1.551"/>
		<rect x="19.372" y="19.631" fill="#FFFFFF" width="1.551" height="1.551"/>
		<rect x="22.534" y="19.631" fill="#FFFFFF" width="1.551" height="1.551"/>
		<rect x="25.697" y="19.631" fill="#FFFFFF" width="1.55" height="1.551"/>
		<rect x="28.859" y="19.631" fill="#FFFFFF" width="1.55" height="1.551"/>
		<rect x="32.021" y="19.631" fill="#FFFFFF" width="1.551" height="1.551"/>
		<rect x="17.791" y="21.209" fill="#FFFFFF" width="1.55" height="1.551"/>
		<rect x="20.954" y="21.209" fill="#FFFFFF" width="1.549" height="1.551"/>
		<rect x="24.116" y="21.209" fill="#FFFFFF" width="1.548" height="1.551"/>
		<rect x="27.277" y="21.209" fill="#FFFFFF" width="1.551" height="1.551"/>
		<rect x="30.442" y="21.209" fill="#FFFFFF" width="1.55" height="1.551"/>
		<rect x="33.602" y="21.209" fill="#FFFFFF" width="1.552" height="1.551"/>
		<rect x="19.372" y="22.79" fill="#FFFFFF" width="1.551" height="1.548"/>
		<rect x="22.534" y="22.79" fill="#FFFFFF" width="1.551" height="1.548"/>
		<rect x="25.697" y="22.79" fill="#FFFFFF" width="1.55" height="1.548"/>
		<rect x="28.859" y="22.79" fill="#FFFFFF" width="1.55" height="1.548"/>
		<rect x="32.021" y="22.79" fill="#FFFFFF" width="1.551" height="1.548"/>
		<rect x="17.791" y="24.367" fill="#FFFFFF" width="1.55" height="1.55"/>
		<rect x="20.954" y="24.367" fill="#FFFFFF" width="1.549" height="1.55"/>
		<rect x="24.116" y="24.367" fill="#FFFFFF" width="1.548" height="1.55"/>
		<rect x="27.277" y="24.367" fill="#FFFFFF" width="1.551" height="1.55"/>
		<rect x="30.442" y="24.367" fill="#FFFFFF" width="1.55" height="1.55"/>
		<rect x="33.602" y="24.367" fill="#FFFFFF" width="1.552" height="1.55"/>
	</g>
</g>
</svg>
