<?xml version="1.0" encoding="utf-8"?>
<!-- Generator: Adobe Illustrator 16.0.0, SVG Export Plug-In . SVG Version: 6.00 Build 0)  -->
<!DOCTYPE svg PUBLIC "-//W3C//DTD SVG 1.1//EN" "http://www.w3.org/Graphics/SVG/1.1/DTD/svg11.dtd">
<svg version="1.1" id="图层_1" xmlns="http://www.w3.org/2000/svg" xmlns:xlink="http://www.w3.org/1999/xlink" x="0px" y="0px"
	 width="54px" height="38px" viewBox="0 0 54 38" enable-background="new 0 0 54 38" xml:space="preserve">
<g>
	<path fill="#FFFFFF" d="M45.473,29.406c0,0.943-0.769,1.711-1.714,1.711H3.661c-0.945,0-1.712-0.768-1.712-1.711V3.433
		c0-0.946,0.767-1.712,1.712-1.712h40.098c0.945,0,1.714,0.767,1.714,1.712V29.406z"/>
	<circle fill="#C52F1E" cx="23.71" cy="16.419" r="9.889"/>
	<path fill="#CF431D" d="M33.6,16.347c-0.041-5.428-4.447-9.817-9.887-9.817c-5.438,0-9.847,4.39-9.885,9.817H33.6z"/>
</g>
<g>
	<path fill="#FFFFFF" d="M52.241,34.783c0,0.76-0.618,1.376-1.377,1.376h-32.26c-0.76,0-1.376-0.616-1.376-1.376V13.888
		c0-0.759,0.617-1.376,1.376-1.376h32.26c0.759,0,1.377,0.617,1.377,1.376V34.783L52.241,34.783z"/>
	<g>
		<rect x="17.228" y="27.09" fill="#D13419" width="35.014" height="2.295"/>
		<rect x="17.228" y="19.283" fill="#D13419" width="35.014" height="2.296"/>
		<rect x="17.228" y="30.992" fill="#D13419" width="35.014" height="2.297"/>
		<rect x="17.228" y="23.186" fill="#D13419" width="35.014" height="2.297"/>
		<rect x="17.228" y="15.38" fill="#D13419" width="35.014" height="2.295"/>
		<path fill="#D13419" d="M17.238,34.896c0.06,0.705,0.644,1.263,1.366,1.263h32.258c0.721,0,1.309-0.558,1.365-1.263H17.238z"/>
		<path fill="#D13419" d="M52.229,13.773c-0.06-0.705-0.643-1.261-1.365-1.261h-32.26c-0.721,0-1.306,0.556-1.365,1.261H52.229z"/>
	</g>
	<path fill="#63A7DC" d="M34.676,25.482V12.626c0-0.041,0.008-0.076,0.012-0.115H18.604c-0.76,0-1.376,0.621-1.376,1.389v11.582
		H34.676z"/>
	<g>
		<rect x="18.852" y="12.625" fill="#FFFFFF" width="1.551" height="1.55"/>
		<rect x="22.014" y="12.625" fill="#FFFFFF" width="1.551" height="1.55"/>
		<rect x="25.176" y="12.625" fill="#FFFFFF" width="1.55" height="1.55"/>
		<rect x="28.339" y="12.625" fill="#FFFFFF" width="1.55" height="1.55"/>
		<rect x="31.501" y="12.625" fill="#FFFFFF" width="1.551" height="1.55"/>
		<rect x="17.27" y="14.204" fill="#FFFFFF" width="1.55" height="1.55"/>
		<rect x="20.434" y="14.204" fill="#FFFFFF" width="1.549" height="1.55"/>
		<rect x="23.595" y="14.204" fill="#FFFFFF" width="1.548" height="1.55"/>
		<rect x="26.756" y="14.204" fill="#FFFFFF" width="1.552" height="1.55"/>
		<rect x="29.922" y="14.204" fill="#FFFFFF" width="1.55" height="1.55"/>
		<rect x="33.081" y="14.204" fill="#FFFFFF" width="1.552" height="1.55"/>
		<rect x="18.852" y="15.782" fill="#FFFFFF" width="1.551" height="1.551"/>
		<rect x="22.014" y="15.782" fill="#FFFFFF" width="1.551" height="1.551"/>
		<rect x="25.176" y="15.782" fill="#FFFFFF" width="1.55" height="1.551"/>
		<rect x="28.339" y="15.782" fill="#FFFFFF" width="1.55" height="1.551"/>
		<rect x="31.501" y="15.782" fill="#FFFFFF" width="1.551" height="1.551"/>
		<rect x="17.27" y="17.361" fill="#FFFFFF" width="1.55" height="1.551"/>
		<rect x="20.434" y="17.361" fill="#FFFFFF" width="1.549" height="1.551"/>
		<rect x="23.595" y="17.361" fill="#FFFFFF" width="1.548" height="1.551"/>
		<rect x="26.756" y="17.361" fill="#FFFFFF" width="1.552" height="1.551"/>
		<rect x="29.922" y="17.361" fill="#FFFFFF" width="1.55" height="1.551"/>
		<rect x="33.081" y="17.361" fill="#FFFFFF" width="1.552" height="1.551"/>
		<rect x="18.852" y="18.938" fill="#FFFFFF" width="1.551" height="1.551"/>
		<rect x="22.014" y="18.938" fill="#FFFFFF" width="1.551" height="1.551"/>
		<rect x="25.176" y="18.938" fill="#FFFFFF" width="1.55" height="1.551"/>
		<rect x="28.339" y="18.938" fill="#FFFFFF" width="1.55" height="1.551"/>
		<rect x="31.501" y="18.938" fill="#FFFFFF" width="1.551" height="1.551"/>
		<rect x="17.27" y="20.517" fill="#FFFFFF" width="1.55" height="1.551"/>
		<rect x="20.434" y="20.517" fill="#FFFFFF" width="1.549" height="1.551"/>
		<rect x="23.595" y="20.517" fill="#FFFFFF" width="1.548" height="1.551"/>
		<rect x="26.756" y="20.517" fill="#FFFFFF" width="1.552" height="1.551"/>
		<rect x="29.922" y="20.517" fill="#FFFFFF" width="1.55" height="1.551"/>
		<rect x="33.081" y="20.517" fill="#FFFFFF" width="1.552" height="1.551"/>
		<rect x="18.852" y="22.098" fill="#FFFFFF" width="1.551" height="1.548"/>
		<rect x="22.014" y="22.098" fill="#FFFFFF" width="1.551" height="1.548"/>
		<rect x="25.176" y="22.098" fill="#FFFFFF" width="1.55" height="1.548"/>
		<rect x="28.339" y="22.098" fill="#FFFFFF" width="1.55" height="1.548"/>
		<rect x="31.501" y="22.098" fill="#FFFFFF" width="1.551" height="1.548"/>
		<rect x="17.27" y="23.675" fill="#FFFFFF" width="1.55" height="1.55"/>
		<rect x="20.434" y="23.675" fill="#FFFFFF" width="1.549" height="1.55"/>
		<rect x="23.595" y="23.675" fill="#FFFFFF" width="1.548" height="1.55"/>
		<rect x="26.756" y="23.675" fill="#FFFFFF" width="1.552" height="1.55"/>
		<rect x="29.922" y="23.675" fill="#FFFFFF" width="1.55" height="1.55"/>
		<rect x="33.081" y="23.675" fill="#FFFFFF" width="1.552" height="1.55"/>
	</g>
</g>
</svg>
