<?xml version="1.0" encoding="utf-8"?>
<!-- Generator: Adobe Illustrator 16.0.0, SVG Export Plug-In . SVG Version: 6.00 Build 0)  -->
<!DOCTYPE svg PUBLIC "-//W3C//DTD SVG 1.1//EN" "http://www.w3.org/Graphics/SVG/1.1/DTD/svg11.dtd">
<svg version="1.1" id="图层_1" xmlns="http://www.w3.org/2000/svg" xmlns:xlink="http://www.w3.org/1999/xlink" x="0px" y="0px"
	 width="54px" height="38px" viewBox="0 0 54 38" enable-background="new 0 0 54 38" xml:space="preserve">
<g>
	<path fill="#C02620" d="M45.078,28.961c0,1.104-0.896,2-2,2h-39.5c-1.104,0-2-0.896-2-2V3.627c0-1.104,0.896-2,2-2h39.5
		c1.104,0,2,0.896,2,2V28.961z"/>
	<polygon fill="#F0DB6A" points="5.411,9.961 9.744,9.961 10.911,5.627 12.244,9.794 16.244,9.794 13.078,12.627 14.578,16.794 
		11.244,14.294 7.744,16.627 9.078,12.627 	"/>
	<polygon fill="#F0DB6A" points="20.398,4.963 21.665,4.963 22.006,3.697 22.396,4.915 23.565,4.915 22.639,5.743 23.078,6.961 
		22.104,6.23 21.081,6.912 21.47,5.743 	"/>
	<polygon fill="#F0DB6A" points="25.039,9.194 26.306,9.194 26.646,7.928 27.037,9.146 28.205,9.146 27.28,9.974 27.719,11.192 
		26.744,10.461 25.721,11.143 26.111,9.974 	"/>
	<g>
		<path fill="#FFFFFF" d="M52.438,35.252c0,0.76-0.618,1.376-1.377,1.376h-32.26c-0.76,0-1.376-0.616-1.376-1.376V14.356
			c0-0.759,0.617-1.376,1.376-1.376h32.26c0.759,0,1.377,0.617,1.377,1.376V35.252L52.438,35.252z"/>
		<g>
			<rect x="17.425" y="27.559" fill="#D13419" width="35.014" height="2.295"/>
			<rect x="17.425" y="19.752" fill="#D13419" width="35.014" height="2.296"/>
			<rect x="17.425" y="31.461" fill="#D13419" width="35.014" height="2.297"/>
			<rect x="17.425" y="23.654" fill="#D13419" width="35.014" height="2.297"/>
			<rect x="17.425" y="15.849" fill="#D13419" width="35.014" height="2.295"/>
			<path fill="#D13419" d="M17.435,35.365c0.06,0.705,0.644,1.263,1.366,1.263h32.258c0.721,0,1.309-0.558,1.365-1.263H17.435z"/>
			<path fill="#D13419" d="M52.427,14.242c-0.06-0.705-0.643-1.261-1.365-1.261h-32.26c-0.721,0-1.306,0.556-1.365,1.261H52.427z"/>
		</g>
		<path fill="#63A7DC" d="M34.873,25.951V13.095c0-0.041,0.008-0.076,0.012-0.115H18.801c-0.76,0-1.376,0.621-1.376,1.389v11.582
			H34.873z"/>
		<g>
			<rect x="19.049" y="13.093" fill="#FFFFFF" width="1.551" height="1.55"/>
			<rect x="22.211" y="13.093" fill="#FFFFFF" width="1.551" height="1.55"/>
			<rect x="25.374" y="13.093" fill="#FFFFFF" width="1.55" height="1.55"/>
			<rect x="28.536" y="13.093" fill="#FFFFFF" width="1.55" height="1.55"/>
			<rect x="31.698" y="13.093" fill="#FFFFFF" width="1.551" height="1.55"/>
			<rect x="17.467" y="14.672" fill="#FFFFFF" width="1.55" height="1.55"/>
			<rect x="20.631" y="14.672" fill="#FFFFFF" width="1.549" height="1.55"/>
			<rect x="23.792" y="14.672" fill="#FFFFFF" width="1.548" height="1.55"/>
			<rect x="26.954" y="14.672" fill="#FFFFFF" width="1.551" height="1.55"/>
			<rect x="30.119" y="14.672" fill="#FFFFFF" width="1.55" height="1.55"/>
			<rect x="33.278" y="14.672" fill="#FFFFFF" width="1.552" height="1.55"/>
			<rect x="19.049" y="16.251" fill="#FFFFFF" width="1.551" height="1.551"/>
			<rect x="22.211" y="16.251" fill="#FFFFFF" width="1.551" height="1.551"/>
			<rect x="25.374" y="16.251" fill="#FFFFFF" width="1.55" height="1.551"/>
			<rect x="28.536" y="16.251" fill="#FFFFFF" width="1.55" height="1.551"/>
			<rect x="31.698" y="16.251" fill="#FFFFFF" width="1.551" height="1.551"/>
			<rect x="17.467" y="17.83" fill="#FFFFFF" width="1.55" height="1.551"/>
			<rect x="20.631" y="17.83" fill="#FFFFFF" width="1.549" height="1.551"/>
			<rect x="23.792" y="17.83" fill="#FFFFFF" width="1.548" height="1.551"/>
			<rect x="26.954" y="17.83" fill="#FFFFFF" width="1.551" height="1.551"/>
			<rect x="30.119" y="17.83" fill="#FFFFFF" width="1.55" height="1.551"/>
			<rect x="33.278" y="17.83" fill="#FFFFFF" width="1.552" height="1.551"/>
			<rect x="19.049" y="19.407" fill="#FFFFFF" width="1.551" height="1.551"/>
			<rect x="22.211" y="19.407" fill="#FFFFFF" width="1.551" height="1.551"/>
			<rect x="25.374" y="19.407" fill="#FFFFFF" width="1.55" height="1.551"/>
			<rect x="28.536" y="19.407" fill="#FFFFFF" width="1.55" height="1.551"/>
			<rect x="31.698" y="19.407" fill="#FFFFFF" width="1.551" height="1.551"/>
			<rect x="17.467" y="20.985" fill="#FFFFFF" width="1.55" height="1.551"/>
			<rect x="20.631" y="20.985" fill="#FFFFFF" width="1.549" height="1.551"/>
			<rect x="23.792" y="20.985" fill="#FFFFFF" width="1.548" height="1.551"/>
			<rect x="26.954" y="20.985" fill="#FFFFFF" width="1.551" height="1.551"/>
			<rect x="30.119" y="20.985" fill="#FFFFFF" width="1.55" height="1.551"/>
			<rect x="33.278" y="20.985" fill="#FFFFFF" width="1.552" height="1.551"/>
			<rect x="19.049" y="22.566" fill="#FFFFFF" width="1.551" height="1.548"/>
			<rect x="22.211" y="22.566" fill="#FFFFFF" width="1.551" height="1.548"/>
			<rect x="25.374" y="22.566" fill="#FFFFFF" width="1.55" height="1.548"/>
			<rect x="28.536" y="22.566" fill="#FFFFFF" width="1.55" height="1.548"/>
			<rect x="31.698" y="22.566" fill="#FFFFFF" width="1.551" height="1.548"/>
			<rect x="17.467" y="24.144" fill="#FFFFFF" width="1.55" height="1.55"/>
			<rect x="20.631" y="24.144" fill="#FFFFFF" width="1.549" height="1.55"/>
			<rect x="23.792" y="24.144" fill="#FFFFFF" width="1.548" height="1.55"/>
			<rect x="26.954" y="24.144" fill="#FFFFFF" width="1.551" height="1.55"/>
			<rect x="30.119" y="24.144" fill="#FFFFFF" width="1.55" height="1.55"/>
			<rect x="33.278" y="24.144" fill="#FFFFFF" width="1.552" height="1.55"/>
		</g>
	</g>
</g>
</svg>
