<?xml version="1.0" encoding="utf-8"?>
<!-- Generator: Adobe Illustrator 16.0.0, SVG Export Plug-In . SVG Version: 6.00 Build 0)  -->
<!DOCTYPE svg PUBLIC "-//W3C//DTD SVG 1.1//EN" "http://www.w3.org/Graphics/SVG/1.1/DTD/svg11.dtd">
<svg version="1.1" id="图层_1" xmlns="http://www.w3.org/2000/svg" xmlns:xlink="http://www.w3.org/1999/xlink" x="0px" y="0px"
	 width="54px" height="38.01px" viewBox="0 0 54 38.01" enable-background="new 0 0 54 38.01" xml:space="preserve">
<g>
	<rect x="1.702" y="2.876" fill="#75AADB" width="51.022" height="32.799"/>
	<rect x="1.702" y="13.808" fill="#FFFFFF" width="51.022" height="10.936"/>
	<g>
		<g>
			<g>
				<g>
					<g>
						<path fill="#FCBF49" stroke="#843511" stroke-width="0.25" d="M26.988,19.275l0.168,4.473c0,0,0,0.084,0.056,0.084
							c0.057,0,0.057-0.084,0.057-0.084l0.168-4.473H26.988z"/>
						<polygon fill="#843511" points="27.1,19.275 27.212,22.345 27.324,19.275 						"/>
						<g>
							<path fill="#FCBF49" stroke="#843511" stroke-width="0.25" d="M30.383,14.963c-0.14,0.603,0.168,1.01,0.014,1.542
								c-0.155,0.534,0.084,0.898,0.113,1.121c0.028,0.226-0.14,0.324-0.084,0.364c0.055,0.043,0.224-0.097,0.238-0.405
								c0.014-0.308-0.197-0.442-0.014-1.093c0.182-0.651-0.112-0.87,0.084-1.458L30.383,14.963z"/>
							<path fill="#843511" d="M30.48,15.089c-0.083,0.589,0.197,0.913,0.028,1.431c0.225-0.393-0.056-0.786,0.084-1.402
								L30.48,15.089z"/>
						</g>
					</g>
					<g>
						<g>
							<path fill="#FCBF49" stroke="#843511" stroke-width="0.25" d="M27.437,19.275l-0.168-4.471c0,0,0-0.084-0.057-0.084
								c-0.056,0-0.056,0.084-0.056,0.084l-0.168,4.471H27.437z"/>
							<polygon fill="#843511" points="27.324,19.275 27.212,16.206 27.1,19.275 							"/>
							<g>
								<path fill="#FCBF49" stroke="#843511" stroke-width="0.25" d="M30.635,11.964c0.14-0.603-0.169-1.01-0.014-1.542
									c0.154-0.534-0.084-0.898-0.113-1.121c-0.028-0.226,0.14-0.324,0.084-0.366c-0.055-0.041-0.224,0.099-0.238,0.407
									c-0.014,0.308,0.197,0.442,0.014,1.093c-0.182,0.653,0.112,0.87-0.084,1.458L30.635,11.964z"/>
								<path fill="#843511" d="M30.538,11.838c0.083-0.589-0.197-0.913-0.029-1.431c-0.224,0.392,0.056,0.786-0.083,1.402
									L30.538,11.838z"/>
							</g>
						</g>
					</g>
				</g>
				<g>
					<g>
						<g>
							<path fill="#FCBF49" stroke="#843511" stroke-width="0.25" d="M27.212,19.052L22.74,19.22c0,0-0.084,0-0.084,0.055
								c0,0.057,0.084,0.057,0.084,0.057l4.472,0.168V19.052z"/>
							<polygon fill="#843511" points="27.212,19.163 24.143,19.275 27.212,19.388 							"/>
							<g>
								<path fill="#FCBF49" stroke="#843511" stroke-width="0.25" d="M29.009,13.337c-0.603-0.14-1.009,0.167-1.542,0.015
									c-0.533-0.155-0.897,0.083-1.121,0.113c-0.225,0.028-0.323-0.142-0.365-0.085c-0.041,0.056,0.099,0.225,0.407,0.238
									c0.308,0.015,0.442-0.195,1.094-0.013c0.651,0.182,0.868-0.113,1.457,0.084L29.009,13.337z"/>
								<path fill="#843511" d="M28.883,13.434c-0.589-0.083-0.912,0.197-1.43,0.03c0.392,0.223,0.785-0.056,1.401,0.084
									L28.883,13.434z"/>
							</g>
						</g>
						<g>
							<g>
								<path fill="#FCBF49" stroke="#843511" stroke-width="0.25" d="M27.212,19.499l4.472-0.168c0,0,0.084,0,0.084-0.057
									c0-0.055-0.084-0.055-0.084-0.055l-4.472-0.168V19.499z"/>
								<polygon fill="#843511" points="27.212,19.388 30.282,19.275 27.212,19.163 								"/>
								<g>
									<path fill="#FCBF49" stroke="#843511" stroke-width="0.25" d="M32.009,13.59c0.603,0.14,1.009-0.167,1.542-0.015
										c0.533,0.155,0.897-0.083,1.121-0.113c0.225-0.028,0.323,0.142,0.365,0.085c0.041-0.056-0.099-0.225-0.407-0.238
										c-0.308-0.015-0.442,0.195-1.094,0.013s-0.869,0.113-1.457-0.084L32.009,13.59z"/>
									<path fill="#843511" d="M32.135,13.492c0.589,0.083,0.912-0.197,1.43-0.03c-0.392-0.223-0.785,0.056-1.402-0.083
										L32.135,13.492z"/>
								</g>
							</g>
						</g>
					</g>
				</g>
				<g>
					<g>
						<g>
							<g>
								<path fill="#FCBF49" stroke="#843511" stroke-width="0.25" d="M27.054,19.116l-3.043,3.281c0,0-0.06,0.059-0.02,0.1
									c0.04,0.039,0.099-0.02,0.099-0.02l3.281-3.043L27.054,19.116z"/>
								<polygon fill="#843511" points="27.133,19.197 25.042,21.447 27.292,19.355 								"/>
								<g>
									<path fill="#FCBF49" stroke="#843511" stroke-width="0.25" d="M29.359,14.434c-0.524,0.328-0.594,0.834-1.08,1.101
										c-0.486,0.268-0.575,0.695-0.713,0.873c-0.139,0.178-0.328,0.128-0.317,0.198c0.009,0.07,0.227,0.089,0.455-0.119
										c0.229-0.208,0.174-0.452,0.763-0.783c0.59-0.331,0.535-0.695,1.091-0.971L29.359,14.434z"/>
									<path fill="#843511" d="M29.339,14.593c-0.476,0.356-0.506,0.783-0.991,1.031c0.436-0.119,0.516-0.595,1.051-0.931
										L29.339,14.593z"/>
								</g>
							</g>
							<g>
								<g>
									<path fill="#FCBF49" stroke="#843511" stroke-width="0.25" d="M27.371,19.435l3.043-3.281c0,0,0.06-0.059,0.02-0.1
										c-0.04-0.039-0.099,0.02-0.099,0.02l-3.281,3.043L27.371,19.435z"/>
									<polygon fill="#843511" points="27.292,19.355 29.383,17.105 27.133,19.197 									"/>
									<g>
										<path fill="#FCBF49" stroke="#843511" stroke-width="0.25" d="M31.658,12.491c0.526-0.326,0.595-0.833,1.081-1.099
											c0.486-0.268,0.575-0.695,0.713-0.873c0.139-0.178,0.328-0.128,0.317-0.198c-0.01-0.07-0.228-0.089-0.456,0.119
											s-0.173,0.452-0.763,0.783c-0.59,0.333-0.535,0.695-1.091,0.971L31.658,12.491z"/>
										<path fill="#843511" d="M31.679,12.333c0.476-0.356,0.506-0.783,0.991-1.031c-0.436,0.119-0.516,0.595-1.051,0.931
											L31.679,12.333z"/>
									</g>
								</g>
							</g>
						</g>
						<g>
							<g>
								<g>
									<path fill="#FCBF49" stroke="#843511" stroke-width="0.25" d="M27.371,19.116l-3.281-3.043c0,0-0.059-0.059-0.099-0.02
										c-0.04,0.041,0.02,0.1,0.02,0.1l3.043,3.281L27.371,19.116z"/>
									<polygon fill="#843511" points="27.292,19.197 25.042,17.105 27.133,19.355 									"/>
									<g>
										<path fill="#FCBF49" stroke="#843511" stroke-width="0.25" d="M29.537,12.315c-0.327-0.525-0.833-0.596-1.1-1.082
											c-0.267-0.486-0.694-0.574-0.873-0.713c-0.178-0.139-0.128-0.327-0.198-0.317c-0.069,0.01-0.089,0.227,0.12,0.456
											c0.208,0.227,0.451,0.173,0.782,0.762c0.332,0.59,0.694,0.536,0.973,1.092L29.537,12.315z"/>
										<path fill="#843511" d="M29.379,12.293c-0.357-0.476-0.782-0.505-1.031-0.99c0.12,0.436,0.595,0.515,0.932,1.05
											L29.379,12.293z"/>
									</g>
								</g>
								<g>
									<g>
										<path fill="#FCBF49" stroke="#843511" stroke-width="0.25" d="M27.054,19.435l3.281,3.043c0,0,0.059,0.059,0.099,0.02
											c0.04-0.041-0.02-0.1-0.02-0.1l-3.043-3.281L27.054,19.435z"/>
										<polygon fill="#843511" points="27.133,19.355 29.383,21.447 27.292,19.197 										"/>
										<g>
											<path fill="#FCBF49" stroke="#843511" stroke-width="0.25" d="M31.481,14.614c0.327,0.525,0.832,0.594,1.1,1.08
												s0.694,0.574,0.872,0.714c0.179,0.139,0.129,0.326,0.199,0.316c0.069-0.01,0.089-0.227-0.12-0.456
												c-0.208-0.227-0.451-0.173-0.783-0.762c-0.332-0.59-0.694-0.536-0.972-1.092L31.481,14.614z"/>
											<path fill="#843511" d="M31.64,14.634c0.356,0.476,0.782,0.505,1.031,0.99c-0.12-0.436-0.595-0.515-0.932-1.05
												L31.64,14.634z"/>
										</g>
									</g>
								</g>
							</g>
						</g>
					</g>
					<g>
						<g>
							<g>
								<g>
									<g>
										<path fill="#FCBF49" stroke="#843511" stroke-width="0.25" d="M27.005,19.191l-1.556,4.195c0,0-0.032,0.076,0.02,0.1
											c0.052,0.02,0.084-0.057,0.084-0.057l1.867-4.068L27.005,19.191z"/>
										<polygon fill="#843511" points="27.108,19.234 26.037,22.113 27.315,19.32 										"/>
										<g>
											<path fill="#FCBF49" stroke="#843511" stroke-width="0.25" d="M29.819,14.801c-0.361,0.504-0.231,0.998-0.578,1.431
												c-0.346,0.433-0.266,0.859-0.325,1.079c-0.06,0.218-0.254,0.243-0.218,0.304c0.036,0.06,0.245-0.004,0.377-0.284
												c0.13-0.28-0.013-0.484,0.405-1.015c0.418-0.533,0.229-0.846,0.635-1.315L29.819,14.801z"/>
											<path fill="#843511" d="M29.861,14.955c-0.303,0.512-0.168,0.917-0.521,1.332c0.357-0.278,0.248-0.748,0.614-1.263
												L29.861,14.955z"/>
										</g>
									</g>
									<g>
										<g>
											<path fill="#FCBF49" stroke="#843511" stroke-width="0.25" d="M27.42,19.361l1.556-4.195c0,0,0.032-0.076-0.02-0.098
												s-0.084,0.055-0.084,0.055l-1.867,4.068L27.42,19.361z"/>
											<polygon fill="#843511" points="27.315,19.32 28.387,16.439 27.108,19.234 											"/>
											<g>
												<path fill="#FCBF49" stroke="#843511" stroke-width="0.25" d="M31.199,12.126c0.361-0.504,0.231-0.998,0.577-1.431
													c0.346-0.433,0.267-0.859,0.326-1.079c0.06-0.218,0.254-0.243,0.217-0.303c-0.035-0.061-0.244,0.004-0.376,0.284
													c-0.13,0.28,0.013,0.484-0.405,1.015c-0.418,0.533-0.229,0.846-0.635,1.315L31.199,12.126z"/>
												<path fill="#843511" d="M31.157,11.971c0.304-0.51,0.168-0.917,0.521-1.332c-0.357,0.278-0.248,0.748-0.614,1.263
													L31.157,11.971z"/>
											</g>
										</g>
									</g>
								</g>
								<g>
									<g>
										<g>
											<path fill="#FCBF49" stroke="#843511" stroke-width="0.25" d="M27.298,19.068l-4.195-1.555c0,0-0.077-0.033-0.1,0.02
												c-0.021,0.051,0.057,0.084,0.057,0.084l4.067,1.867L27.298,19.068z"/>
											<polygon fill="#843511" points="27.255,19.173 24.376,18.101 27.169,19.378 											"/>
											<g>
												<path fill="#FCBF49" stroke="#843511" stroke-width="0.25" d="M29.172,12.774c-0.504-0.362-0.998-0.231-1.431-0.578
													s-0.86-0.265-1.079-0.325c-0.218-0.061-0.244-0.253-0.304-0.217c-0.061,0.034,0.005,0.244,0.285,0.375
													c0.279,0.131,0.483-0.013,1.015,0.405s0.846,0.229,1.314,0.636L29.172,12.774z"/>
												<path fill="#843511" d="M29.017,12.815c-0.512-0.302-0.917-0.168-1.332-0.52c0.277,0.356,0.747,0.249,1.263,0.614
													L29.017,12.815z"/>
											</g>
										</g>
										<g>
											<g>
												<path fill="#FCBF49" stroke="#843511" stroke-width="0.25" d="M27.127,19.484l4.195,1.555c0,0,0.077,0.033,0.099-0.02
													c0.021-0.051-0.056-0.084-0.056-0.084l-4.067-1.867L27.127,19.484z"/>
												<polygon fill="#843511" points="27.169,19.378 30.049,20.45 27.255,19.173 												"/>
												<g>
													<path fill="#FCBF49" stroke="#843511" stroke-width="0.25" d="M31.846,14.153c0.504,0.362,0.998,0.231,1.431,0.578
														c0.433,0.346,0.86,0.265,1.079,0.325c0.218,0.061,0.244,0.253,0.304,0.217c0.061-0.034-0.005-0.244-0.285-0.375
														c-0.279-0.131-0.483,0.013-1.015-0.405c-0.532-0.418-0.846-0.229-1.314-0.636L31.846,14.153z"/>
													<path fill="#843511" d="M32.001,14.112c0.511,0.303,0.917,0.168,1.332,0.52c-0.277-0.356-0.747-0.249-1.263-0.614
														L32.001,14.112z"/>
												</g>
											</g>
										</g>
									</g>
								</g>
								<g>
									<g>
										<g>
											<g>
												<path fill="#FCBF49" stroke="#843511" stroke-width="0.25" d="M27.127,19.068l-4.067,1.867c0,0-0.077,0.033-0.057,0.084
													c0.022,0.053,0.1,0.02,0.1,0.02l4.195-1.555L27.127,19.068z"/>
												<polygon fill="#843511" points="27.169,19.173 24.376,20.45 27.255,19.378 												"/>
												<g>
													<path fill="#FCBF49" stroke="#843511" stroke-width="0.25" d="M29.075,13.922c-0.61,0.1-0.868,0.541-1.419,0.602
														c-0.551,0.062-0.796,0.421-0.993,0.533c-0.197,0.112-0.352-0.006-0.369,0.063c-0.018,0.067,0.176,0.169,0.467,0.065
														c0.291-0.105,0.333-0.351,1.004-0.432c0.672-0.081,0.76-0.438,1.379-0.48L29.075,13.922z"/>
													<path fill="#843511" d="M28.995,14.059c-0.576,0.149-0.766,0.531-1.309,0.573c0.448,0.056,0.704-0.352,1.327-0.459
														L28.995,14.059z"/>
												</g>
											</g>
											<g>
												<g>
													<path fill="#FCBF49" stroke="#843511" stroke-width="0.25" d="M27.298,19.484l4.067-1.867c0,0,0.077-0.033,0.056-0.084
														c-0.021-0.053-0.099-0.02-0.099-0.02l-4.195,1.555L27.298,19.484z"/>
													<polygon fill="#843511" points="27.255,19.378 30.049,18.101 27.169,19.173 													"/>
													<g>
														<path fill="#FCBF49" stroke="#843511" stroke-width="0.25" d="M31.943,13.005c0.61-0.1,0.868-0.541,1.419-0.602
															c0.55-0.062,0.796-0.421,0.993-0.533c0.197-0.112,0.352,0.006,0.369-0.063c0.017-0.067-0.177-0.169-0.467-0.065
															c-0.291,0.105-0.333,0.351-1.004,0.432c-0.672,0.081-0.76,0.438-1.379,0.48L31.943,13.005z"/>
														<path fill="#843511" d="M32.022,12.868c0.577-0.149,0.767-0.531,1.31-0.574c-0.448-0.056-0.704,0.352-1.328,0.459
															L32.022,12.868z"/>
													</g>
												</g>
											</g>
										</g>
										<g>
											<g>
												<g>
													<path fill="#FCBF49" stroke="#843511" stroke-width="0.25" d="M27.42,19.191l-1.867-4.068c0,0-0.032-0.076-0.084-0.055
														s-0.02,0.098-0.02,0.098l1.556,4.195L27.42,19.191z"/>
													<polygon fill="#843511" points="27.315,19.234 26.037,16.439 27.108,19.32 													"/>
													<g>
														<path fill="#FCBF49" stroke="#843511" stroke-width="0.25" d="M30.051,12.029c-0.101-0.609-0.541-0.867-0.602-1.418
															c-0.061-0.552-0.421-0.797-0.533-0.994c-0.112-0.197,0.006-0.352-0.061-0.368c-0.068-0.018-0.17,0.176-0.066,0.466
															c0.105,0.292,0.351,0.333,0.432,1.004c0.081,0.673,0.436,0.76,0.48,1.379L30.051,12.029z"/>
														<path fill="#843511" d="M29.913,11.951c-0.148-0.578-0.53-0.767-0.574-1.31c-0.056,0.448,0.352,0.704,0.459,1.326
															L29.913,11.951z"/>
													</g>
												</g>
												<g>
													<g>
														<path fill="#FCBF49" stroke="#843511" stroke-width="0.25" d="M27.005,19.361l1.867,4.068
															c0,0,0.032,0.076,0.084,0.057c0.052-0.023,0.02-0.1,0.02-0.1l-1.556-4.195L27.005,19.361z"/>
														<polygon fill="#843511" points="27.108,19.32 28.387,22.112 27.315,19.234 														"/>
														<g>
															<path fill="#FCBF49" stroke="#843511" stroke-width="0.25" d="M30.967,14.898c0.101,0.609,0.541,0.867,0.602,1.418
																c0.061,0.552,0.421,0.797,0.533,0.994c0.112,0.197-0.006,0.352,0.061,0.368c0.068,0.018,0.17-0.176,0.066-0.466
																c-0.106-0.291-0.351-0.333-0.432-1.004c-0.081-0.673-0.437-0.76-0.48-1.379L30.967,14.898z"/>
															<path fill="#843511" d="M31.106,14.977c0.147,0.576,0.529,0.765,0.572,1.309c0.057-0.448-0.351-0.704-0.458-1.326
																L31.106,14.977z"/>
														</g>
													</g>
												</g>
											</g>
										</g>
									</g>
									<circle fill="#FCBF49" stroke="#843511" stroke-width="0.25" cx="27.212" cy="19.276" r="1.821"/>
									<g>
										<path fill="#843511" d="M28.361,18.884c-0.322-0.281-0.729-0.324-0.953-0.113c-0.163,0.219-0.147,0.475,0.043,0.744
											c-0.015,0-0.043,0.014-0.057,0.027c-0.142-0.27-0.166-0.547-0.07-0.799C27.633,18.491,28.054,18.462,28.361,18.884
											L28.361,18.884z"/>
										<path fill="#843511" d="M27.857,18.798c-0.183,0-0.225,0.043-0.309,0.113s-0.126,0.057-0.141,0.07
											c-0.014,0.014,0,0.055,0.028,0.041s0.084-0.041,0.168-0.111s0.169-0.07,0.253-0.07c0.252,0,0.393,0.211,0.42,0.195
											C28.306,19.023,28.138,18.798,27.857,18.798L27.857,18.798z"/>
										<path fill="#843511" d="M28.18,19.036c-0.183-0.195-0.519-0.209-0.659,0.016h0.057c0.14-0.225,0.477-0.127,0.504-0.029
											v0.029L28.18,19.036z"/>
										<circle fill="#843511" cx="27.829" cy="19.024" r="0.126"/>
										<path fill="#843511" d="M27.521,19.052c0.141,0.125,0.448,0.141,0.659-0.016l-0.099-0.014
											c-0.14,0.154-0.364,0.141-0.504,0.029v-0.029L27.521,19.052z"/>
										<path fill="#843511" d="M28.193,19.107c-0.238,0.184-0.477,0.168-0.616,0.086c-0.141-0.086-0.141-0.113-0.112-0.113
											s0.056,0.027,0.168,0.084S27.913,19.22,28.193,19.107L28.193,19.107z"/>
										<path fill="#843511" d="M27.507,19.529c0.044,0.016,0.066,0.063,0.051,0.107c-0.016,0.043-0.063,0.066-0.107,0.051
											c-0.031-0.012-0.054-0.041-0.056-0.074c-0.014,0.027-0.07,0.111-0.183,0.111h-0.027l0.027,0.043
											c0.028,0,0.112,0,0.169-0.043c0.039,0.057,0.118,0.072,0.176,0.031c0.057-0.039,0.07-0.117,0.031-0.176
											C27.568,19.552,27.539,19.534,27.507,19.529L27.507,19.529z"/>
										<path fill="#843511" d="M27.675,20.116c-0.126-0.084-0.182-0.211-0.322-0.211c-0.028,0-0.084,0.016-0.141,0.043h-0.027
											l0.027,0.041c0.057,0,0.141-0.068,0.239-0.014C27.549,20.032,27.604,20.089,27.675,20.116L27.675,20.116z"/>
										<path fill="#843511" d="M27.633,20.116c-0.28-0.084-0.337-0.027-0.421-0.027h-0.027l0.027,0.055
											C27.324,20.144,27.381,20.06,27.633,20.116L27.633,20.116z"/>
										<path fill="#843511" d="M27.675,20.116c-0.309-0.027-0.21,0.154-0.463,0.154h-0.027l0.027,0.043
											C27.521,20.314,27.381,20.144,27.675,20.116L27.675,20.116z"/>
										<path fill="#843511" d="M27.465,20.566c0-0.141-0.113-0.252-0.253-0.252c-0.139,0-0.252,0.111-0.252,0.252l0,0
											c0.033-0.141,0.173-0.227,0.313-0.193C27.367,20.396,27.442,20.47,27.465,20.566L27.465,20.566z"/>
									</g>
									<g>
										<g>
											<path fill="#843511" d="M26.063,18.884c0.323-0.281,0.729-0.324,0.954-0.113c0.162,0.219,0.147,0.475-0.043,0.744
												c0.015,0,0.043,0.014,0.057,0.027c0.142-0.27,0.165-0.547,0.069-0.799C26.792,18.491,26.371,18.462,26.063,18.884
												L26.063,18.884z"/>
											<path fill="#843511" d="M26.567,18.798c0.183,0,0.225,0.043,0.309,0.113s0.126,0.057,0.141,0.07
												c0.014,0.014,0,0.055-0.028,0.041s-0.084-0.041-0.168-0.111c-0.085-0.07-0.169-0.07-0.253-0.07
												c-0.252,0-0.393,0.211-0.42,0.195C26.119,19.023,26.287,18.798,26.567,18.798L26.567,18.798z"/>
											<path fill="#843511" d="M26.245,19.036c0.183-0.195,0.519-0.209,0.659,0.016h-0.057c-0.14-0.225-0.477-0.127-0.505-0.029
												v0.029L26.245,19.036z"/>
											<circle fill="#843511" cx="26.596" cy="19.024" r="0.126"/>
											<path fill="#843511" d="M26.904,19.052c-0.141,0.125-0.449,0.141-0.659-0.016l0.098-0.014
												c0.141,0.154,0.365,0.141,0.505,0.029v-0.029L26.904,19.052z"/>
											<path fill="#843511" d="M26.231,19.107c0.238,0.184,0.477,0.168,0.616,0.086c0.141-0.086,0.141-0.113,0.112-0.113
												s-0.056,0.027-0.168,0.084S26.512,19.22,26.231,19.107L26.231,19.107z"/>
											<path fill="#843511" d="M26.918,19.529c-0.044,0.016-0.066,0.063-0.051,0.107c0.016,0.043,0.063,0.066,0.107,0.051
												c0.031-0.012,0.054-0.041,0.056-0.074c0.014,0.027,0.069,0.111,0.182,0.111h0.028l-0.028,0.043
												c-0.027,0-0.112,0-0.168-0.043c-0.04,0.057-0.118,0.072-0.176,0.031c-0.057-0.039-0.071-0.117-0.031-0.176
												C26.856,19.552,26.885,19.534,26.918,19.529L26.918,19.529z"/>
											<path fill="#843511" d="M26.75,20.116c0.126-0.084,0.182-0.211,0.322-0.211c0.027,0,0.084,0.016,0.14,0.043h0.028
												l-0.028,0.041c-0.056,0-0.14-0.068-0.238-0.014C26.876,20.032,26.82,20.089,26.75,20.116L26.75,20.116z"/>
											<path fill="#843511" d="M26.792,20.116c0.28-0.084,0.337-0.027,0.42-0.027h0.028l-0.028,0.055
												C27.1,20.144,27.044,20.06,26.792,20.116L26.792,20.116z"/>
											<path fill="#843511" d="M26.75,20.116c0.309-0.027,0.21,0.154,0.462,0.154h0.028l-0.028,0.043
												C26.904,20.314,27.044,20.144,26.75,20.116L26.75,20.116z"/>
											<path fill="#843511" d="M26.96,20.566c0-0.141,0.113-0.252,0.252-0.252c0.14,0,0.253,0.111,0.253,0.252l0,0
												c-0.033-0.141-0.173-0.227-0.313-0.193C27.057,20.396,26.982,20.47,26.96,20.566L26.96,20.566z"/>
										</g>
									</g>
								</g>
							</g>
						</g>
					</g>
				</g>
			</g>
		</g>
	</g>
</g>
</svg>
