<?xml version="1.0" encoding="utf-8"?>
<!-- Generator: Adobe Illustrator 16.0.0, SVG Export Plug-In . SVG Version: 6.00 Build 0)  -->
<!DOCTYPE svg PUBLIC "-//W3C//DTD SVG 1.1//EN" "http://www.w3.org/Graphics/SVG/1.1/DTD/svg11.dtd">
<svg version="1.1" id="图层_1" xmlns="http://www.w3.org/2000/svg" xmlns:xlink="http://www.w3.org/1999/xlink" x="0px" y="0px"
	 width="54px" height="38.01px" viewBox="0 0 54 38.01" enable-background="new 0 0 54 38.01" xml:space="preserve">
<g>
	<g>
		<rect x="1.701" y="6.519" fill="#00008B" width="51.024" height="25.513"/>
	</g>
	<g>
		<g>
			<polygon fill="#FFFFFF" points="14.457,21.827 15.194,24.121 17.448,23.268 16.115,25.276 18.188,26.505 15.786,26.714 
				16.117,29.102 14.457,27.355 12.796,29.102 13.127,26.714 10.726,26.505 12.798,25.276 11.465,23.268 13.719,24.121 			"/>
		</g>
		<g>
			<polygon fill="#FFFFFF" points="39.969,25.957 40.319,27.05 41.394,26.644 40.758,27.6 41.745,28.186 40.602,28.285 
				40.759,29.422 39.969,28.59 39.178,29.422 39.335,28.285 38.191,28.186 39.179,27.6 38.543,26.644 39.617,27.05 			"/>
		</g>
		<g>
			<polygon fill="#FFFFFF" points="33.59,15.858 33.941,16.951 35.016,16.545 34.38,17.501 35.367,18.087 34.224,18.185 
				34.381,19.323 33.59,18.491 32.8,19.323 32.957,18.185 31.813,18.087 32.801,17.501 32.165,16.545 33.239,16.951 			"/>
		</g>
		<g>
			<polygon fill="#FFFFFF" points="39.969,8.949 40.319,10.042 41.394,9.635 40.758,10.591 41.745,11.177 40.602,11.276 
				40.759,12.413 39.969,11.582 39.178,12.413 39.335,11.276 38.191,11.177 39.179,10.591 38.543,9.635 39.617,10.042 			"/>
		</g>
		<g>
			<polygon fill="#FFFFFF" points="45.638,14.158 45.989,15.251 47.063,14.844 46.427,15.8 47.414,16.385 46.271,16.485 
				46.429,17.622 45.638,16.79 44.847,17.622 45.004,16.485 43.861,16.385 44.849,15.8 44.213,14.844 45.286,15.251 			"/>
		</g>
		<g>
			<polygon fill="#FFFFFF" points="42.52,19.275 42.797,19.956 43.53,20.01 42.969,20.486 43.145,21.199 42.52,20.812 
				41.895,21.199 42.07,20.486 41.509,20.01 42.242,19.956 			"/>
		</g>
		<polygon fill="#FFFFFF" points="12.331,6.519 16.583,6.519 16.583,10.771 27.212,10.771 27.212,15.023 16.583,15.023 
			16.583,19.275 12.331,19.275 12.331,15.023 1.701,15.023 1.701,10.771 12.331,10.771 		"/>
		<polygon fill="#FFFFFF" points="1.701,6.519 4.553,6.519 27.212,17.849 27.212,19.275 24.36,19.275 1.701,7.946 		"/>
		<g>
			<polygon fill="#FFFFFF" points="27.212,6.519 24.36,6.519 1.701,17.849 1.701,19.275 4.553,19.275 27.212,7.946 			"/>
		</g>
	</g>
	<g>
		<polygon fill="#FF0000" points="13.181,6.519 15.732,6.519 15.732,11.622 27.212,11.622 27.212,14.173 15.732,14.173 
			15.732,19.275 13.181,19.275 13.181,14.173 1.701,14.173 1.701,11.622 13.181,11.622 		"/>
		<path fill="#FF0000" d="M1.701,6.519l8.504,4.252H8.303L1.701,7.47V6.519z M27.212,6.519h-1.901l-8.504,4.252h1.901L27.212,6.519z
			"/>
		<g>
			<path fill="#FF0000" d="M27.212,19.275l-8.503-4.252h1.901l6.602,3.302V19.275z M1.701,19.275h1.901l8.504-4.252h-1.901
				L1.701,19.275z"/>
		</g>
	</g>
</g>
</svg>
