<?xml version="1.0" encoding="utf-8"?>
<!-- Generator: Adobe Illustrator 16.0.0, SVG Export Plug-In . SVG Version: 6.00 Build 0)  -->
<!DOCTYPE svg PUBLIC "-//W3C//DTD SVG 1.1//EN" "http://www.w3.org/Graphics/SVG/1.1/DTD/svg11.dtd">
<svg version="1.1" id="图层_1" xmlns="http://www.w3.org/2000/svg" xmlns:xlink="http://www.w3.org/1999/xlink" x="0px" y="0px"
	 width="54px" height="38px" viewBox="0 0 54 38" enable-background="new 0 0 54 38" xml:space="preserve">
<g>
	<g>
		<path fill="#FFFFFF" d="M45.105,29.256c0,0.945-0.77,1.713-1.715,1.713H3.235c-0.947,0-1.714-0.768-1.714-1.713V3.247
			c0-0.945,0.768-1.715,1.714-1.715h40.155c0.945,0,1.715,0.77,1.715,1.715V29.256z"/>
		<g>
			<rect x="1.521" y="19.68" fill="#D13419" width="43.584" height="2.857"/>
			<rect x="1.521" y="9.961" fill="#D13419" width="43.584" height="2.859"/>
			<rect x="1.521" y="24.535" fill="#D13419" width="43.584" height="2.859"/>
			<rect x="1.521" y="14.819" fill="#D13419" width="43.584" height="2.859"/>
			<rect x="1.521" y="5.104" fill="#D13419" width="43.584" height="2.856"/>
			<path fill="#D13419" d="M1.534,29.396c0.074,0.877,0.802,1.572,1.7,1.572h40.154c0.897,0,1.628-0.695,1.699-1.572H1.534z"/>
			<path fill="#D13419" d="M45.09,3.103c-0.074-0.878-0.8-1.571-1.699-1.571H3.235c-0.898,0-1.626,0.693-1.7,1.571H45.09z"/>
		</g>
		<path fill="#63A7DC" d="M23.241,17.678V1.676c0-0.051,0.009-0.095,0.013-0.145H3.235c-0.947,0-1.714,0.774-1.714,1.73v14.416
			H23.241z"/>
		<g>
			<rect x="3.543" y="1.673" fill="#FFFFFF" width="1.93" height="1.93"/>
			<rect x="7.479" y="1.673" fill="#FFFFFF" width="1.93" height="1.93"/>
			<rect x="11.416" y="1.673" fill="#FFFFFF" width="1.929" height="1.93"/>
			<rect x="15.352" y="1.673" fill="#FFFFFF" width="1.93" height="1.93"/>
			<rect x="19.288" y="1.673" fill="#FFFFFF" width="1.93" height="1.93"/>
			<rect x="1.574" y="3.639" fill="#FFFFFF" width="1.93" height="1.93"/>
			<rect x="5.512" y="3.639" fill="#FFFFFF" width="1.928" height="1.93"/>
			<rect x="9.447" y="3.639" fill="#FFFFFF" width="1.927" height="1.93"/>
			<rect x="13.383" y="3.639" fill="#FFFFFF" width="1.93" height="1.93"/>
			<rect x="17.322" y="3.639" fill="#FFFFFF" width="1.929" height="1.93"/>
			<rect x="21.256" y="3.639" fill="#FFFFFF" width="1.931" height="1.93"/>
			<rect x="3.543" y="5.604" fill="#FFFFFF" width="1.93" height="1.93"/>
			<rect x="7.479" y="5.604" fill="#FFFFFF" width="1.93" height="1.93"/>
			<rect x="11.416" y="5.604" fill="#FFFFFF" width="1.929" height="1.93"/>
			<rect x="15.352" y="5.604" fill="#FFFFFF" width="1.93" height="1.93"/>
			<rect x="19.288" y="5.604" fill="#FFFFFF" width="1.93" height="1.93"/>
			<rect x="1.574" y="7.569" fill="#FFFFFF" width="1.93" height="1.93"/>
			<rect x="5.512" y="7.569" fill="#FFFFFF" width="1.928" height="1.93"/>
			<rect x="9.447" y="7.569" fill="#FFFFFF" width="1.927" height="1.93"/>
			<rect x="13.383" y="7.569" fill="#FFFFFF" width="1.93" height="1.93"/>
			<rect x="17.322" y="7.569" fill="#FFFFFF" width="1.929" height="1.93"/>
			<rect x="21.256" y="7.569" fill="#FFFFFF" width="1.931" height="1.93"/>
			<rect x="3.543" y="9.533" fill="#FFFFFF" width="1.93" height="1.93"/>
			<rect x="7.479" y="9.533" fill="#FFFFFF" width="1.93" height="1.93"/>
			<rect x="11.416" y="9.533" fill="#FFFFFF" width="1.929" height="1.93"/>
			<rect x="15.352" y="9.533" fill="#FFFFFF" width="1.93" height="1.93"/>
			<rect x="19.288" y="9.533" fill="#FFFFFF" width="1.93" height="1.93"/>
			<rect x="1.574" y="11.497" fill="#FFFFFF" width="1.93" height="1.93"/>
			<rect x="5.512" y="11.497" fill="#FFFFFF" width="1.928" height="1.93"/>
			<rect x="9.447" y="11.497" fill="#FFFFFF" width="1.927" height="1.93"/>
			<rect x="13.383" y="11.497" fill="#FFFFFF" width="1.93" height="1.93"/>
			<rect x="17.322" y="11.497" fill="#FFFFFF" width="1.929" height="1.93"/>
			<rect x="21.256" y="11.497" fill="#FFFFFF" width="1.931" height="1.93"/>
			<rect x="3.543" y="13.463" fill="#FFFFFF" width="1.93" height="1.928"/>
			<rect x="7.479" y="13.463" fill="#FFFFFF" width="1.93" height="1.928"/>
			<rect x="11.416" y="13.463" fill="#FFFFFF" width="1.929" height="1.928"/>
			<rect x="15.352" y="13.463" fill="#FFFFFF" width="1.93" height="1.928"/>
			<rect x="19.288" y="13.463" fill="#FFFFFF" width="1.93" height="1.928"/>
			<rect x="1.574" y="15.428" fill="#FFFFFF" width="1.93" height="1.93"/>
			<rect x="5.512" y="15.428" fill="#FFFFFF" width="1.928" height="1.93"/>
			<rect x="9.447" y="15.428" fill="#FFFFFF" width="1.927" height="1.93"/>
			<rect x="13.383" y="15.428" fill="#FFFFFF" width="1.93" height="1.93"/>
			<rect x="17.322" y="15.428" fill="#FFFFFF" width="1.929" height="1.93"/>
			<rect x="21.256" y="15.428" fill="#FFFFFF" width="1.931" height="1.93"/>
		</g>
	</g>
	<g>
		<defs>
			<path id="SVGID_1_" d="M52.479,35.018c0,0.801-0.65,1.451-1.451,1.451H18.775c-0.8,0-1.45-0.65-1.45-1.451V14.152
				c0-0.801,0.65-1.45,1.45-1.45h32.253c0.801,0,1.451,0.649,1.451,1.45V35.018z"/>
		</defs>
		<clipPath id="SVGID_2_">
			<use xlink:href="#SVGID_1_"  overflow="visible"/>
		</clipPath>
		<g clip-path="url(#SVGID_2_)">
			<g>
				<rect x="16.752" y="12.25" fill="#00008B" width="49.337" height="24.669"/>
			</g>
			<g>
				<g>
					<polygon fill="#FFFFFF" points="29.086,27.053 29.799,29.27 31.979,28.447 30.689,30.387 32.693,31.576 30.371,31.777 
						30.692,34.088 29.086,32.398 27.479,34.088 27.801,31.777 25.479,31.576 27.482,30.387 26.193,28.447 28.372,29.27 					"/>
				</g>
				<g>
					<polygon fill="#FFFFFF" points="53.755,31.047 54.093,32.104 55.133,31.711 54.518,32.635 55.473,33.203 54.366,33.297 
						54.519,34.396 53.755,33.592 52.99,34.396 53.142,33.297 52.036,33.203 52.992,32.635 52.376,31.711 53.415,32.104 					"/>
				</g>
				<g>
					<polygon fill="#FFFFFF" points="47.587,21.281 47.927,22.338 48.966,21.945 48.351,22.871 49.305,23.436 48.2,23.531 
						48.352,24.631 47.587,23.828 46.823,24.631 46.975,23.531 45.868,23.436 46.824,22.871 46.208,21.945 47.246,22.338 					"/>
				</g>
				<g>
					<polygon fill="#FFFFFF" points="53.755,14.601 54.093,15.658 55.133,15.263 54.518,16.188 55.473,16.754 54.366,16.851 
						54.519,17.95 53.755,17.146 52.99,17.95 53.142,16.851 52.036,16.754 52.992,16.188 52.376,15.263 53.415,15.658 					"/>
				</g>
				<g>
					<polygon fill="#FFFFFF" points="59.238,19.637 59.575,20.693 60.614,20.301 59.999,21.225 60.954,21.791 59.849,21.887 
						60.002,22.986 59.238,22.182 58.472,22.986 58.623,21.887 57.519,21.791 58.475,21.225 57.859,20.301 58.896,20.693 					"/>
				</g>
				<g>
					<polygon fill="#FFFFFF" points="56.221,24.586 56.489,25.244 57.198,25.295 56.655,25.756 56.825,26.445 56.221,26.07 
						55.616,26.445 55.788,25.756 55.243,25.295 55.953,25.244 					"/>
				</g>
				<polygon fill="#FFFFFF" points="27.031,12.25 31.143,12.25 31.143,16.362 41.419,16.362 41.419,20.475 31.143,20.475 
					31.143,24.586 27.031,24.586 27.031,20.475 16.752,20.475 16.752,16.362 27.031,16.362 				"/>
				<polygon fill="#FFFFFF" points="16.752,12.25 19.509,12.25 41.419,23.207 41.419,24.586 38.661,24.586 16.752,13.63 				"/>
				<g>
					<polygon fill="#FFFFFF" points="41.419,12.25 38.661,12.25 16.752,23.207 16.752,24.586 19.509,24.586 41.419,13.63 					"/>
				</g>
			</g>
			<g>
				<polygon fill="#FF0000" points="27.853,12.25 30.319,12.25 30.319,17.185 41.419,17.185 41.419,19.652 30.319,19.652 
					30.319,24.586 27.853,24.586 27.853,19.652 16.752,19.652 16.752,17.185 27.853,17.185 				"/>
				<path fill="#FF0000" d="M16.752,12.25l8.223,4.111h-1.839l-6.383-3.192V12.25z M41.419,12.25h-1.838l-8.224,4.111h1.84
					L41.419,12.25z"/>
				<g>
					<path fill="#FF0000" d="M41.419,24.586l-8.222-4.111h1.838l6.384,3.191V24.586z M16.752,24.586h1.837l8.223-4.111h-1.838
						L16.752,24.586z"/>
				</g>
			</g>
		</g>
	</g>
</g>
</svg>
