<?xml version="1.0" encoding="utf-8"?>
<!-- Generator: Adobe Illustrator 15.0.0, SVG Export Plug-In . SVG Version: 6.00 Build 0)  -->
<!DOCTYPE svg PUBLIC "-//W3C//DTD SVG 1.1//EN" "http://www.w3.org/Graphics/SVG/1.1/DTD/svg11.dtd">
<svg version="1.1" id="图层_1" xmlns="http://www.w3.org/2000/svg" xmlns:xlink="http://www.w3.org/1999/xlink" x="0px" y="0px"
	 width="54px" height="38px" viewBox="0 0 54 38" enable-background="new 0 0 54 38" xml:space="preserve">
<g>
	<path fill="#009B3A" d="M52.333,34.173c0,1.105-0.895,2-2,2H3.501c-1.105,0-2-0.895-2-2V3.84c0-1.104,0.895-2,2-2h46.832
		c1.105,0,2,0.896,2,2V34.173z"/>
	<g>
		<polygon fill="#FEDF00" points="3.954,19.007 26.835,4.328 49.88,19.007 26.89,33.685 		"/>
		<ellipse fill="#002776" cx="26.863" cy="19.007" rx="9.681" ry="9.814"/>
		<path fill="#FFFFFF" d="M36.099,21.938c0.16-0.521,0.282-1.061,0.355-1.615c-6.504-6.148-16.672-5.5-18.422-5.337
			c-0.225,0.508-0.407,1.04-0.546,1.59C19.646,16.318,29.676,15.524,36.099,21.938z"/>
		<path fill="none" d="M17.284,16.254c0,0,13.814-1.133,19.644,6.043"/>
		<text transform="matrix(0.9999 -0.0112 0.0112 0.9999 18.4238 16.1968)"><tspan x="0" y="0" fill="#009B3A" font-family="'MicrosoftYaHei'" font-size="1.2952">O</tspan><tspan x="1.177" y="0.003" fill="#009B3A" font-family="'MicrosoftYaHei'" font-size="1.2952" rotate="1.6">R</tspan><tspan x="2.138" y="0.031" fill="#009B3A" font-family="'MicrosoftYaHei'" font-size="1.2952" rotate="3.081">D</tspan><tspan x="3.267" y="0.096" fill="#009B3A" font-family="'MicrosoftYaHei'" font-size="1.2952" rotate="4.515">E</tspan><tspan x="4.105" y="0.159" fill="#009B3A" font-family="'MicrosoftYaHei'" font-size="1.2952" rotate="6.172">M</tspan><tspan x="5.479" y="0.315" fill="#009B3A" font-family="'MicrosoftYaHei'" font-size="1.2952" rotate="7.638"> </tspan><tspan x="5.983" y="0.384" fill="#009B3A" font-family="'MicrosoftYaHei'" font-size="1.2952" rotate="8.46"> </tspan><tspan x="6.473" y="0.457" fill="#009B3A" font-family="'MicrosoftYaHei'" font-size="1.2952" rotate="9.283"> </tspan><tspan x="6.982" y="0.539" fill="#009B3A" font-family="'MicrosoftYaHei'" font-size="1.2952" rotate="10.456">E</tspan><tspan x="7.795" y="0.693" fill="#009B3A" font-family="'MicrosoftYaHei'" font-size="1.2952" rotate="11.659"> </tspan><tspan x="8.302" y="0.798" fill="#009B3A" font-family="'MicrosoftYaHei'" font-size="1.2952" rotate="12.639"> </tspan><tspan x="8.813" y="0.914" fill="#009B3A" font-family="'MicrosoftYaHei'" font-size="1.2952" rotate="13.666"> </tspan><tspan x="9.299" y="1.034" fill="#009B3A" font-family="'MicrosoftYaHei'" font-size="1.2952" rotate="14.693"> </tspan><tspan x="9.793" y="1.162" fill="#009B3A" font-family="'MicrosoftYaHei'" font-size="1.2952" rotate="16.234">P</tspan><tspan x="10.666" y="1.418" fill="#009B3A" font-family="'MicrosoftYaHei'" font-size="1.2952" rotate="18.403">R</tspan><tspan x="11.586" y="1.724" fill="#009B3A" font-family="'MicrosoftYaHei'" font-size="1.2952" rotate="21.129">O</tspan><tspan x="12.684" y="2.152" fill="#009B3A" font-family="'MicrosoftYaHei'" font-size="1.2952" rotate="24.32">G</tspan><tspan x="13.668" y="2.602" fill="#009B3A" font-family="'MicrosoftYaHei'" font-size="1.2952" rotate="27.518">R</tspan><tspan x="14.512" y="3.047" fill="#009B3A" font-family="'MicrosoftYaHei'" font-size="1.2952" rotate="30.564">E</tspan><tspan x="15.235" y="3.477" fill="#009B3A" font-family="'MicrosoftYaHei'" font-size="1.2952" rotate="33.759">S</tspan><tspan x="15.946" y="3.956" fill="#009B3A" font-family="'MicrosoftYaHei'" font-size="1.2952" rotate="37.215">S</tspan><tspan x="16.635" y="4.477" fill="#009B3A" font-family="'MicrosoftYaHei'" font-size="1.2952" rotate="41.653">O</tspan></text>
		<circle fill="#FFFFFF" cx="29.966" cy="15.931" r="0.267"/>
		<circle fill="#FFFFFF" cx="18.902" cy="17.228" r="0.268"/>
		<circle fill="#FFFFFF" cx="23.166" cy="19.493" r="0.268"/>
		<circle fill="#FFFFFF" cx="26.835" cy="23.271" r="0.267"/>
		<circle fill="#FFFFFF" cx="29.696" cy="25.538" r="0.267"/>
		<circle fill="#FFFFFF" cx="33.798" cy="22.407" r="0.267"/>
		<circle fill="#FFFFFF" cx="18.633" cy="22.19" r="0.2"/>
		<circle fill="#FFFFFF" cx="19.82" cy="21.343" r="0.2"/>
		<circle fill="#FFFFFF" cx="20.753" cy="20.788" r="0.201"/>
		<circle fill="#FFFFFF" cx="21.871" cy="22.313" r="0.2"/>
		<circle fill="#FFFFFF" cx="21.548" cy="23.323" r="0.2"/>
		<circle fill="#FFFFFF" cx="23.005" cy="24.31" r="0.2"/>
		<circle fill="#FFFFFF" cx="25.811" cy="21.435" r="0.2"/>
		<circle fill="#FFFFFF" cx="26.296" cy="22.19" r="0.2"/>
		<circle fill="#FFFFFF" cx="26.905" cy="20.571" r="0.2"/>
		<circle fill="#FFFFFF" cx="27.915" cy="21.435" r="0.2"/>
		<circle fill="#FFFFFF" cx="29.534" cy="18.644" r="0.2"/>
		<circle fill="#FFFFFF" cx="35" cy="22.515" r="0.2"/>
		<circle fill="#FFFFFF" cx="33.959" cy="23.323" r="0.201"/>
		<circle fill="#FFFFFF" cx="33.489" cy="24.134" r="0.2"/>
		<circle fill="#FFFFFF" cx="32.788" cy="24.673" r="0.2"/>
		<circle fill="#FFFFFF" cx="31.692" cy="24.296" r="0.2"/>
		<ellipse fill="#FFFFFF" cx="31.725" cy="25.267" rx="0.238" ry="0.201"/>
		<circle fill="#FFFFFF" cx="31.816" cy="26.347" r="0.201"/>
		<circle fill="#FFFFFF" cx="30.559" cy="24.688" r="0.201"/>
		<circle fill="#FFFFFF" cx="28.887" cy="24.403" r="0.2"/>
		<circle fill="#FFFFFF" cx="26.89" cy="26.669" r="0.201"/>
	</g>
</g>
</svg>
