<?xml version="1.0" encoding="utf-8"?>
<!-- Generator: Adobe Illustrator 15.0.0, SVG Export Plug-In . SVG Version: 6.00 Build 0)  -->
<!DOCTYPE svg PUBLIC "-//W3C//DTD SVG 1.1//EN" "http://www.w3.org/Graphics/SVG/1.1/DTD/svg11.dtd">
<svg version="1.1" id="图层_1" xmlns="http://www.w3.org/2000/svg" xmlns:xlink="http://www.w3.org/1999/xlink" x="0px" y="0px"
	 width="54px" height="38px" viewBox="0 0 54 38" enable-background="new 0 0 54 38" xml:space="preserve">
<g>
	<path fill="#FFFFFF" d="M52.475,34.233c0,1.104-0.895,2-2,2H3.643c-1.105,0-2-0.896-2-2V3.9c0-1.104,0.895-2,2-2h46.832
		c1.105,0,2,0.896,2,2V34.233z"/>
	<path fill="#DB261D" d="M37.439,19.34c0,0-0.668-0.607-1.154-1.093c-0.484-0.486,0.79-3.157,0.79-3.157s-1.457,0.485-2.306,0.546
		c-0.852,0.06-1.154-1.701-1.154-1.701l-0.426,0.122c0,0-2.124,2.549-2.308,2.671c-0.181,0.121-0.727,0-0.727,0
		s0.849-4.432,0.91-4.614c0.061-0.182,0.242-1.64,0.242-1.64s-1.336,0.971-1.517,1.153c-0.184,0.182-0.668-0.242-0.668-0.242
		l-1.882-3.643c0,0-1.761,3.4-2.005,3.643c-0.242,0.242-0.546,0.242-0.546,0.242l-1.639-1.213l-0.061,1.153l1.152,5.342
		l-0.728,0.121l-2.55-2.915c0,0,0.06,0.972-0.668,1.336c-0.729,0.364-2.368-0.182-3.036-0.546c0.364,1.032,0.849,3.703,0.546,3.946
		c-0.304,0.242-1.03,0.424-1.03,0.424s4.917,4.068,5.281,4.372s-0.608,2.063-0.608,2.063c1.811-0.707,3.727-0.937,5.465-0.933v5.608
		h0.668v-5.595c3.016,0.107,5.342,0.859,5.342,0.859c-0.606-0.669,0-2.308,0-2.308L37.439,19.34z"/>
	<g>
		<path fill="#DB261D" d="M14.893,1.9H3.643c-1.105,0-2,0.896-2,2v30.333c0,1.104,0.895,2,2,2h11.25V1.9z"/>
		<path fill="#DB261D" d="M50.475,1.9H39.227v34.333h11.248c1.105,0,2-0.896,2-2V3.9C52.475,2.795,51.58,1.9,50.475,1.9z"/>
	</g>
</g>
</svg>
