<?xml version="1.0" encoding="utf-8"?>
<!-- Generator: Adobe Illustrator 16.0.0, SVG Export Plug-In . SVG Version: 6.00 Build 0)  -->
<!DOCTYPE svg PUBLIC "-//W3C//DTD SVG 1.1//EN" "http://www.w3.org/Graphics/SVG/1.1/DTD/svg11.dtd">
<svg version="1.1" id="图层_1" xmlns="http://www.w3.org/2000/svg" xmlns:xlink="http://www.w3.org/1999/xlink" x="0px" y="0px"
	 width="54px" height="38.01px" viewBox="0 0 54 38.01" enable-background="new 0 0 54 38.01" xml:space="preserve">
<g>
	<rect x="1.701" y="2.268" fill="#FFFFFF" stroke="#000000" stroke-width="0.25" width="51.024" height="34.016"/>
	<rect x="1.701" y="2.268" fill="#0035AD" width="17.008" height="34.016"/>
	<rect x="1.701" y="19.276" fill="#D42E12" width="51.024" height="17.008"/>
	<g>
		<g>
			<polygon fill="#FFFFFF" points="-1.918,-1.948 -1.929,-1.915 -1.913,-1.91 			"/>
			<g>
				<polygon fill="#FFFFFF" points="-1.918,-1.948 -1.908,-1.915 -1.924,-1.91 				"/>
			</g>
		</g>
		<g>
			<g>
				<polygon fill="#FFFFFF" points="-1.886,-1.924 -1.92,-1.924 -1.92,-1.907 				"/>
				<g>
					<polygon fill="#FFFFFF" points="-1.886,-1.924 -1.914,-1.904 -1.924,-1.918 					"/>
				</g>
			</g>
			<g>
				<g>
					<polygon fill="#FFFFFF" points="-1.951,-1.924 -1.923,-1.904 -1.913,-1.918 					"/>
					<g>
						<polygon fill="#FFFFFF" points="-1.951,-1.924 -1.917,-1.924 -1.917,-1.907 						"/>
					</g>
				</g>
				<g>
					<g>
						<polygon fill="#FFFFFF" points="-1.898,-1.886 -1.909,-1.919 -1.925,-1.913 						"/>
						<g>
							<polygon fill="#FFFFFF" points="-1.898,-1.886 -1.926,-1.906 -1.916,-1.92 							"/>
						</g>
					</g>
					<g>
						<g>
							<polygon fill="#FFFFFF" points="-1.938,-1.886 -1.911,-1.906 -1.921,-1.92 							"/>
							<g>
								<polygon fill="#FFFFFF" points="-1.938,-1.886 -1.928,-1.919 -1.912,-1.913 								"/>
							</g>
						</g>
					</g>
				</g>
			</g>
		</g>
	</g>
</g>
</svg>
