<?xml version="1.0" encoding="utf-8"?>
<!-- Generator: Adobe Illustrator 15.0.0, SVG Export Plug-In . SVG Version: 6.00 Build 0)  -->
<!DOCTYPE svg PUBLIC "-//W3C//DTD SVG 1.1//EN" "http://www.w3.org/Graphics/SVG/1.1/DTD/svg11.dtd">
<svg version="1.1" id="图层_1" xmlns="http://www.w3.org/2000/svg" xmlns:xlink="http://www.w3.org/1999/xlink" x="0px" y="0px"
	 width="54px" height="38px" viewBox="0 0 54 38" enable-background="new 0 0 54 38" xml:space="preserve">
<g>
	<path fill="#E60012" d="M52.459,34.27c0,1.105-0.895,2-2,2H3.627c-1.105,0-2-0.895-2-2V3.937c0-1.104,0.895-2,2-2h46.832
		c1.105,0,2,0.896,2,2V34.27z"/>
	<polygon fill="#F9E267" points="3.629,8.885 7.963,8.885 9.129,4.551 10.463,8.718 14.463,8.718 11.297,11.551 12.797,15.718 
		9.463,13.218 5.963,15.551 7.297,11.551 	"/>
	<polygon fill="#F9E267" points="16.378,4.65 17.645,4.65 17.986,3.383 18.376,4.602 19.544,4.602 18.619,5.43 19.058,6.647 
		18.083,5.917 17.06,6.599 17.451,5.43 	"/>
	<polygon fill="#F9E267" points="20.511,8.387 21.778,8.387 22.119,7.12 22.509,8.338 23.677,8.338 22.751,9.167 23.191,10.384 
		22.216,9.653 21.193,10.335 21.583,9.167 	"/>
	<polygon fill="#F9E267" points="20.093,13.387 21.36,13.387 21.701,12.12 22.091,13.338 23.259,13.338 22.333,14.167 
		22.773,15.384 21.798,14.653 20.775,15.335 21.166,14.167 	"/>
	<polygon fill="#F9E267" points="16.511,17.137 17.778,17.137 18.119,15.87 18.509,17.088 19.677,17.088 18.751,17.917 
		19.191,19.134 18.216,18.403 17.193,19.085 17.583,17.917 	"/>
</g>
</svg>
