<?xml version="1.0" encoding="utf-8"?>
<!-- Generator: Adobe Illustrator 15.0.0, SVG Export Plug-In . SVG Version: 6.00 Build 0)  -->
<!DOCTYPE svg PUBLIC "-//W3C//DTD SVG 1.1//EN" "http://www.w3.org/Graphics/SVG/1.1/DTD/svg11.dtd">
<svg version="1.1" id="图层_1" xmlns="http://www.w3.org/2000/svg" xmlns:xlink="http://www.w3.org/1999/xlink" x="0px" y="0px"
	 width="54px" height="38px" viewBox="0 0 54 38" enable-background="new 0 0 54 38" xml:space="preserve">
<g>
	<path fill="#E3A835" d="M52.512,34.168c0,1.105-0.895,2-2,2H3.679c-1.104,0-2-0.895-2-2V3.835c0-1.104,0.896-2,2-2h46.833
		c1.105,0,2,0.896,2,2V34.168z"/>
	<path fill="#E7B74D" d="M52.512,15.851V3.835c0-1.104-0.895-2-2-2H3.679c-1.104,0-2,0.896-2,2v11.208
		C7.822,17.566,26.878,23.693,52.512,15.851z"/>
	<text transform="matrix(1 0 0 1 10.5542 27.4189)" fill="#AC925F" font-family="'STXihei'" font-size="24">Au</text>
	<text transform="matrix(1 0 0 1 10.5542 28.418)" fill="#F8FBFE" font-family="'STXihei'" font-size="24">Au</text>
</g>
</svg>
