<?xml version="1.0" encoding="utf-8"?>
<!-- Generator: Adobe Illustrator 15.0.0, SVG Export Plug-In . SVG Version: 6.00 Build 0)  -->
<!DOCTYPE svg PUBLIC "-//W3C//DTD SVG 1.1//EN" "http://www.w3.org/Graphics/SVG/1.1/DTD/svg11.dtd">
<svg version="1.1" id="图层_1" xmlns="http://www.w3.org/2000/svg" xmlns:xlink="http://www.w3.org/1999/xlink" x="0px" y="0px"
	 width="54px" height="38px" viewBox="0 0 54 38" enable-background="new 0 0 54 38" xml:space="preserve">
<g>
	<path fill="#C02620" d="M45.078,28.961c0,1.104-0.896,2-2,2h-39.5c-1.104,0-2-0.896-2-2V3.627c0-1.104,0.896-2,2-2h39.5
		c1.104,0,2,0.896,2,2V28.961z"/>
	<polygon fill="#F0DB6A" points="5.411,9.961 9.744,9.961 10.911,5.627 12.244,9.794 16.244,9.794 13.078,12.627 14.578,16.794 
		11.244,14.294 7.744,16.627 9.078,12.627 	"/>
	<polygon fill="#F0DB6A" points="20.398,4.963 21.665,4.963 22.006,3.697 22.396,4.915 23.565,4.915 22.639,5.743 23.078,6.961 
		22.104,6.23 21.081,6.912 21.47,5.743 	"/>
	<polygon fill="#F0DB6A" points="25.039,9.194 26.306,9.194 26.646,7.928 27.037,9.146 28.205,9.146 27.28,9.974 27.719,11.192 
		26.744,10.461 25.721,11.143 26.111,9.974 	"/>
	<g>
		<path fill="#FFFFFF" d="M52.343,35.195c0,0.756-0.613,1.369-1.37,1.369H18.89c-0.756,0-1.37-0.613-1.37-1.369v-20.78
			c0-0.756,0.614-1.37,1.37-1.37h32.083c0.757,0,1.37,0.614,1.37,1.37V35.195z"/>
		<g>
			<rect x="17.52" y="27.545" fill="#D13419" width="34.823" height="2.283"/>
			<rect x="17.52" y="19.781" fill="#D13419" width="34.823" height="2.283"/>
			<rect x="17.52" y="31.427" fill="#D13419" width="34.823" height="2.284"/>
			<rect x="17.52" y="23.663" fill="#D13419" width="34.823" height="2.284"/>
			<rect x="17.52" y="15.899" fill="#D13419" width="34.823" height="2.284"/>
			<path fill="#D13419" d="M17.531,35.309c0.059,0.703,0.641,1.256,1.359,1.256h32.083c0.719,0,1.3-0.553,1.359-1.256H17.531z"/>
			<path fill="#D13419" d="M52.332,14.301c-0.06-0.702-0.641-1.256-1.359-1.256H18.89c-0.717,0-1.3,0.554-1.359,1.256H52.332z"/>
		</g>
		<path fill="#63A7DC" d="M34.874,25.946V13.16c0-0.04,0.009-0.076,0.012-0.115H18.89c-0.756,0-1.37,0.619-1.37,1.383v11.519H34.874
			z"/>
		<g>
			<rect x="19.136" y="13.159" fill="#FFFFFF" width="1.541" height="1.541"/>
			<rect x="22.281" y="13.159" fill="#FFFFFF" width="1.541" height="1.541"/>
			<rect x="25.427" y="13.159" fill="#FFFFFF" width="1.542" height="1.541"/>
			<rect x="28.572" y="13.159" fill="#FFFFFF" width="1.541" height="1.541"/>
			<rect x="31.717" y="13.159" fill="#FFFFFF" width="1.541" height="1.541"/>
			<rect x="17.563" y="14.729" fill="#FFFFFF" width="1.542" height="1.542"/>
			<rect x="20.708" y="14.729" fill="#FFFFFF" width="1.542" height="1.542"/>
			<rect x="23.854" y="14.729" fill="#FFFFFF" width="1.542" height="1.542"/>
			<rect x="26.999" y="14.729" fill="#FFFFFF" width="1.542" height="1.542"/>
			<rect x="30.145" y="14.729" fill="#FFFFFF" width="1.541" height="1.542"/>
			<rect x="33.29" y="14.729" fill="#FFFFFF" width="1.541" height="1.542"/>
			<rect x="19.136" y="16.299" fill="#FFFFFF" width="1.541" height="1.541"/>
			<rect x="22.281" y="16.299" fill="#FFFFFF" width="1.541" height="1.541"/>
			<rect x="25.427" y="16.299" fill="#FFFFFF" width="1.542" height="1.541"/>
			<rect x="28.572" y="16.299" fill="#FFFFFF" width="1.541" height="1.541"/>
			<rect x="31.717" y="16.299" fill="#FFFFFF" width="1.541" height="1.541"/>
			<rect x="17.563" y="17.868" fill="#FFFFFF" width="1.542" height="1.542"/>
			<rect x="20.708" y="17.868" fill="#FFFFFF" width="1.542" height="1.542"/>
			<rect x="23.854" y="17.868" fill="#FFFFFF" width="1.542" height="1.542"/>
			<rect x="26.999" y="17.868" fill="#FFFFFF" width="1.542" height="1.542"/>
			<rect x="30.145" y="17.868" fill="#FFFFFF" width="1.541" height="1.542"/>
			<rect x="33.29" y="17.868" fill="#FFFFFF" width="1.541" height="1.542"/>
			<rect x="19.136" y="19.438" fill="#FFFFFF" width="1.541" height="1.541"/>
			<rect x="22.281" y="19.438" fill="#FFFFFF" width="1.541" height="1.541"/>
			<rect x="25.427" y="19.438" fill="#FFFFFF" width="1.542" height="1.541"/>
			<rect x="28.572" y="19.438" fill="#FFFFFF" width="1.541" height="1.541"/>
			<rect x="31.717" y="19.438" fill="#FFFFFF" width="1.541" height="1.541"/>
			<rect x="17.563" y="21.008" fill="#FFFFFF" width="1.542" height="1.542"/>
			<rect x="20.708" y="21.008" fill="#FFFFFF" width="1.542" height="1.542"/>
			<rect x="23.854" y="21.008" fill="#FFFFFF" width="1.542" height="1.542"/>
			<rect x="26.999" y="21.008" fill="#FFFFFF" width="1.542" height="1.542"/>
			<rect x="30.145" y="21.008" fill="#FFFFFF" width="1.541" height="1.542"/>
			<rect x="33.29" y="21.008" fill="#FFFFFF" width="1.541" height="1.542"/>
			<rect x="19.136" y="22.578" fill="#FFFFFF" width="1.541" height="1.541"/>
			<rect x="22.281" y="22.578" fill="#FFFFFF" width="1.541" height="1.541"/>
			<rect x="25.427" y="22.578" fill="#FFFFFF" width="1.542" height="1.541"/>
			<rect x="28.572" y="22.578" fill="#FFFFFF" width="1.541" height="1.541"/>
			<rect x="31.717" y="22.578" fill="#FFFFFF" width="1.541" height="1.541"/>
			<rect x="17.563" y="24.148" fill="#FFFFFF" width="1.542" height="1.541"/>
			<rect x="20.708" y="24.148" fill="#FFFFFF" width="1.542" height="1.541"/>
			<rect x="23.854" y="24.148" fill="#FFFFFF" width="1.542" height="1.541"/>
			<rect x="26.999" y="24.148" fill="#FFFFFF" width="1.542" height="1.541"/>
			<rect x="30.145" y="24.148" fill="#FFFFFF" width="1.541" height="1.541"/>
			<rect x="33.29" y="24.148" fill="#FFFFFF" width="1.541" height="1.541"/>
		</g>
	</g>
</g>
</svg>
