<?xml version="1.0" encoding="utf-8"?>
<!-- Generator: Adobe Illustrator 15.0.0, SVG Export Plug-In . SVG Version: 6.00 Build 0)  -->
<!DOCTYPE svg PUBLIC "-//W3C//DTD SVG 1.1//EN" "http://www.w3.org/Graphics/SVG/1.1/DTD/svg11.dtd">
<svg version="1.1" id="图层_1" xmlns="http://www.w3.org/2000/svg" xmlns:xlink="http://www.w3.org/1999/xlink" x="0px" y="0px"
	 width="54px" height="38px" viewBox="0 0 54 38" enable-background="new 0 0 54 38" xml:space="preserve">
<g>
	<path fill="#FFFFFF" d="M52.609,33.918c0,1.104-0.896,2-2,2H3.776c-1.104,0-2-0.896-2-2V3.584c0-1.104,0.896-2,2-2h46.833
		c1.104,0,2,0.896,2,2V33.918z"/>
	<g>
		<rect x="1.776" y="22.75" fill="#D13419" width="50.833" height="3.334"/>
		<rect x="1.776" y="11.417" fill="#D13419" width="50.833" height="3.333"/>
		<rect x="1.776" y="28.417" fill="#D13419" width="50.833" height="3.333"/>
		<rect x="1.776" y="17.083" fill="#D13419" width="50.833" height="3.334"/>
		<rect x="1.776" y="5.75" fill="#D13419" width="50.833" height="3.333"/>
		<path fill="#D13419" d="M1.792,34.084c0.086,1.025,0.936,1.834,1.983,1.834h46.833c1.047,0,1.896-0.809,1.982-1.834H1.792z"/>
		<path fill="#D13419" d="M52.592,3.417c-0.086-1.025-0.936-1.833-1.982-1.833H3.776c-1.047,0-1.897,0.808-1.983,1.833H52.592z"/>
	</g>
	<path fill="#63A7DC" d="M27.109,20.417V1.752c0-0.058,0.012-0.111,0.017-0.168H3.776c-1.104,0-2,0.903-2,2.018v16.815H27.109z"/>
	<g>
		<rect x="4.135" y="1.75" fill="#FFFFFF" width="2.25" height="2.25"/>
		<rect x="8.726" y="1.75" fill="#FFFFFF" width="2.25" height="2.25"/>
		<rect x="13.317" y="1.75" fill="#FFFFFF" width="2.25" height="2.25"/>
		<rect x="17.909" y="1.75" fill="#FFFFFF" width="2.25" height="2.25"/>
		<rect x="22.5" y="1.75" fill="#FFFFFF" width="2.25" height="2.25"/>
		<rect x="1.839" y="4.042" fill="#FFFFFF" width="2.25" height="2.25"/>
		<rect x="6.43" y="4.042" fill="#FFFFFF" width="2.25" height="2.25"/>
		<rect x="11.021" y="4.042" fill="#FFFFFF" width="2.25" height="2.25"/>
		<rect x="15.613" y="4.042" fill="#FFFFFF" width="2.25" height="2.25"/>
		<rect x="20.205" y="4.042" fill="#FFFFFF" width="2.25" height="2.25"/>
		<rect x="24.796" y="4.042" fill="#FFFFFF" width="2.25" height="2.25"/>
		<rect x="4.135" y="6.334" fill="#FFFFFF" width="2.25" height="2.25"/>
		<rect x="8.726" y="6.334" fill="#FFFFFF" width="2.25" height="2.25"/>
		<rect x="13.317" y="6.334" fill="#FFFFFF" width="2.25" height="2.25"/>
		<rect x="17.909" y="6.334" fill="#FFFFFF" width="2.25" height="2.25"/>
		<rect x="22.5" y="6.334" fill="#FFFFFF" width="2.25" height="2.25"/>
		<rect x="1.839" y="8.625" fill="#FFFFFF" width="2.25" height="2.25"/>
		<rect x="6.43" y="8.625" fill="#FFFFFF" width="2.25" height="2.25"/>
		<rect x="11.021" y="8.625" fill="#FFFFFF" width="2.25" height="2.25"/>
		<rect x="15.613" y="8.625" fill="#FFFFFF" width="2.25" height="2.25"/>
		<rect x="20.205" y="8.625" fill="#FFFFFF" width="2.25" height="2.25"/>
		<rect x="24.796" y="8.625" fill="#FFFFFF" width="2.25" height="2.25"/>
		<rect x="4.135" y="10.917" fill="#FFFFFF" width="2.25" height="2.25"/>
		<rect x="8.726" y="10.917" fill="#FFFFFF" width="2.25" height="2.25"/>
		<rect x="13.317" y="10.917" fill="#FFFFFF" width="2.25" height="2.25"/>
		<rect x="17.909" y="10.917" fill="#FFFFFF" width="2.25" height="2.25"/>
		<rect x="22.5" y="10.917" fill="#FFFFFF" width="2.25" height="2.25"/>
		<rect x="1.839" y="13.208" fill="#FFFFFF" width="2.25" height="2.25"/>
		<rect x="6.43" y="13.208" fill="#FFFFFF" width="2.25" height="2.25"/>
		<rect x="11.021" y="13.208" fill="#FFFFFF" width="2.25" height="2.25"/>
		<rect x="15.613" y="13.208" fill="#FFFFFF" width="2.25" height="2.25"/>
		<rect x="20.205" y="13.208" fill="#FFFFFF" width="2.25" height="2.25"/>
		<rect x="24.796" y="13.208" fill="#FFFFFF" width="2.25" height="2.25"/>
		<rect x="4.135" y="15.5" fill="#FFFFFF" width="2.25" height="2.25"/>
		<rect x="8.726" y="15.5" fill="#FFFFFF" width="2.25" height="2.25"/>
		<rect x="13.317" y="15.5" fill="#FFFFFF" width="2.25" height="2.25"/>
		<rect x="17.909" y="15.5" fill="#FFFFFF" width="2.25" height="2.25"/>
		<rect x="22.5" y="15.5" fill="#FFFFFF" width="2.25" height="2.25"/>
		<rect x="1.839" y="17.792" fill="#FFFFFF" width="2.25" height="2.25"/>
		<rect x="6.43" y="17.792" fill="#FFFFFF" width="2.25" height="2.25"/>
		<rect x="11.021" y="17.792" fill="#FFFFFF" width="2.25" height="2.25"/>
		<rect x="15.613" y="17.792" fill="#FFFFFF" width="2.25" height="2.25"/>
		<rect x="20.205" y="17.792" fill="#FFFFFF" width="2.25" height="2.25"/>
		<rect x="24.796" y="17.792" fill="#FFFFFF" width="2.25" height="2.25"/>
	</g>
</g>
</svg>
