<?xml version="1.0" encoding="utf-8"?>
<!-- Generator: Adobe Illustrator 15.0.0, SVG Export Plug-In . SVG Version: 6.00 Build 0)  -->
<!DOCTYPE svg PUBLIC "-//W3C//DTD SVG 1.1//EN" "http://www.w3.org/Graphics/SVG/1.1/DTD/svg11.dtd">
<svg version="1.1" id="图层_1" xmlns="http://www.w3.org/2000/svg" xmlns:xlink="http://www.w3.org/1999/xlink" x="0px" y="0px"
	 width="54px" height="38px" viewBox="0 0 54 38" enable-background="new 0 0 54 38" xml:space="preserve">
<g>
	<path fill="#2F1D82" d="M52.5,34.041c0,1.105-0.895,2-2,2H3.668c-1.105,0-2-0.895-2-2V3.708c0-1.104,0.895-2,2-2H50.5
		c1.105,0,2,0.896,2,2V34.041z"/>
	<path fill="#FFFFFF" d="M42.028,23.857l-0.083-5.082l0.75-4.5L52.5,6.921V3.708c0-1.104-0.895-2-2-2h-5.124l-18.765,13.15
		L8.84,1.708H3.668c-1.105,0-2,0.896-2,2v3.32l11.693,8.33l-1,9.333L1.668,30.855v3.186c0,1.105,0.895,2,2,2H9.6l17.012-11.184
		l2.5,0.084l14.949,11.1H50.5c1.105,0,2-0.895,2-2v-2.994L42.028,23.857z"/>
	<path fill="#DE0F19" d="M35.528,21.691l-1.167-1.25l0.084-4.167L52.202,2.67c-0.351-0.575-0.979-0.962-1.702-0.962h-2.379
		l-21.51,17.149L3.087,1.804c-0.819,0.25-1.419,1.003-1.419,1.904V5.45l21.193,14.908L2.792,35.832
		c0.266,0.13,0.561,0.209,0.876,0.209h1.929l0.599,0.066l0.833-0.166l14.333-9.75l0.237-0.248l4.597-2.918l4.25-0.834l20.943,13.633
		c0.656-0.328,1.111-0.999,1.111-1.783v-1.063L35.528,21.691z"/>
	<polygon fill="#FFFFFF" points="52.459,12.75 33.209,12.75 33.209,1.75 20.959,1.75 20.959,12.75 1.709,12.75 1.709,25 20.959,25 
		20.959,36 33.209,36 33.209,25 52.459,25 	"/>
	<polygon fill="#DE0F19" points="52.459,15.5 30.459,15.5 30.459,1.75 23.709,1.75 23.709,15.5 1.709,15.5 1.709,22.25 
		23.709,22.25 23.709,36 30.459,36 30.459,22.25 52.459,22.25 	"/>
</g>
</svg>
