<?xml version="1.0" encoding="utf-8"?>
<!-- Generator: Adobe Illustrator 16.0.0, SVG Export Plug-In . SVG Version: 6.00 Build 0)  -->
<!DOCTYPE svg PUBLIC "-//W3C//DTD SVG 1.1//EN" "http://www.w3.org/Graphics/SVG/1.1/DTD/svg11.dtd">
<svg version="1.1" id="图层_1" xmlns="http://www.w3.org/2000/svg" xmlns:xlink="http://www.w3.org/1999/xlink" x="0px" y="0px"
	 width="54px" height="38px" viewBox="0 0 54 38" enable-background="new 0 0 54 38" xml:space="preserve">
<g>
	<g>
		<path fill="#FFFFFF" d="M45.475,29.404c0,0.945-0.771,1.714-1.716,1.714H3.604c-0.947,0-1.714-0.769-1.714-1.714V3.396
			c0-0.945,0.768-1.714,1.714-1.714h40.155c0.945,0,1.716,0.769,1.716,1.714V29.404z"/>
		<g>
			<rect x="1.889" y="19.829" fill="#D13419" width="43.583" height="2.858"/>
			<rect x="1.889" y="10.112" fill="#D13419" width="43.583" height="2.858"/>
			<rect x="1.889" y="24.686" fill="#D13419" width="43.583" height="2.859"/>
			<rect x="1.889" y="14.969" fill="#D13419" width="43.583" height="2.859"/>
			<rect x="1.889" y="5.254" fill="#D13419" width="43.583" height="2.856"/>
			<path fill="#D13419" d="M1.902,29.546c0.074,0.878,0.802,1.572,1.7,1.572h40.154c0.896,0,1.628-0.694,1.699-1.572H1.902z"/>
			<path fill="#D13419" d="M45.458,3.253c-0.074-0.878-0.8-1.571-1.699-1.571H3.604c-0.898,0-1.626,0.693-1.7,1.571H45.458z"/>
		</g>
		<path fill="#63A7DC" d="M23.609,17.828V1.826c0-0.051,0.009-0.094,0.013-0.144H3.604c-0.947,0-1.714,0.774-1.714,1.73v14.416
			H23.609z"/>
		<g>
			<rect x="3.911" y="1.823" fill="#FFFFFF" width="1.93" height="1.93"/>
			<rect x="7.847" y="1.823" fill="#FFFFFF" width="1.93" height="1.93"/>
			<rect x="11.784" y="1.823" fill="#FFFFFF" width="1.929" height="1.93"/>
			<rect x="15.72" y="1.823" fill="#FFFFFF" width="1.93" height="1.93"/>
			<rect x="19.656" y="1.823" fill="#FFFFFF" width="1.93" height="1.93"/>
			<rect x="1.942" y="3.789" fill="#FFFFFF" width="1.93" height="1.93"/>
			<rect x="5.88" y="3.789" fill="#FFFFFF" width="1.928" height="1.93"/>
			<rect x="9.815" y="3.789" fill="#FFFFFF" width="1.927" height="1.93"/>
			<rect x="13.751" y="3.789" fill="#FFFFFF" width="1.93" height="1.93"/>
			<rect x="17.69" y="3.789" fill="#FFFFFF" width="1.929" height="1.93"/>
			<rect x="21.624" y="3.789" fill="#FFFFFF" width="1.931" height="1.93"/>
			<rect x="3.911" y="5.754" fill="#FFFFFF" width="1.93" height="1.93"/>
			<rect x="7.847" y="5.754" fill="#FFFFFF" width="1.93" height="1.93"/>
			<rect x="11.784" y="5.754" fill="#FFFFFF" width="1.929" height="1.93"/>
			<rect x="15.72" y="5.754" fill="#FFFFFF" width="1.93" height="1.93"/>
			<rect x="19.656" y="5.754" fill="#FFFFFF" width="1.93" height="1.93"/>
			<rect x="1.942" y="7.719" fill="#FFFFFF" width="1.93" height="1.93"/>
			<rect x="5.88" y="7.719" fill="#FFFFFF" width="1.928" height="1.93"/>
			<rect x="9.815" y="7.719" fill="#FFFFFF" width="1.927" height="1.93"/>
			<rect x="13.751" y="7.719" fill="#FFFFFF" width="1.93" height="1.93"/>
			<rect x="17.69" y="7.719" fill="#FFFFFF" width="1.929" height="1.93"/>
			<rect x="21.624" y="7.719" fill="#FFFFFF" width="1.931" height="1.93"/>
			<rect x="3.911" y="9.683" fill="#FFFFFF" width="1.93" height="1.93"/>
			<rect x="7.847" y="9.683" fill="#FFFFFF" width="1.93" height="1.93"/>
			<rect x="11.784" y="9.683" fill="#FFFFFF" width="1.929" height="1.93"/>
			<rect x="15.72" y="9.683" fill="#FFFFFF" width="1.93" height="1.93"/>
			<rect x="19.656" y="9.683" fill="#FFFFFF" width="1.93" height="1.93"/>
			<rect x="1.942" y="11.647" fill="#FFFFFF" width="1.93" height="1.93"/>
			<rect x="5.88" y="11.647" fill="#FFFFFF" width="1.928" height="1.93"/>
			<rect x="9.815" y="11.647" fill="#FFFFFF" width="1.927" height="1.93"/>
			<rect x="13.751" y="11.647" fill="#FFFFFF" width="1.93" height="1.93"/>
			<rect x="17.69" y="11.647" fill="#FFFFFF" width="1.929" height="1.93"/>
			<rect x="21.624" y="11.647" fill="#FFFFFF" width="1.931" height="1.93"/>
			<rect x="3.911" y="13.614" fill="#FFFFFF" width="1.93" height="1.927"/>
			<rect x="7.847" y="13.614" fill="#FFFFFF" width="1.93" height="1.927"/>
			<rect x="11.784" y="13.614" fill="#FFFFFF" width="1.929" height="1.927"/>
			<rect x="15.72" y="13.614" fill="#FFFFFF" width="1.93" height="1.927"/>
			<rect x="19.656" y="13.614" fill="#FFFFFF" width="1.93" height="1.927"/>
			<rect x="1.942" y="15.578" fill="#FFFFFF" width="1.93" height="1.93"/>
			<rect x="5.88" y="15.578" fill="#FFFFFF" width="1.928" height="1.93"/>
			<rect x="9.815" y="15.578" fill="#FFFFFF" width="1.927" height="1.93"/>
			<rect x="13.751" y="15.578" fill="#FFFFFF" width="1.93" height="1.93"/>
			<rect x="17.69" y="15.578" fill="#FFFFFF" width="1.929" height="1.93"/>
			<rect x="21.624" y="15.578" fill="#FFFFFF" width="1.931" height="1.93"/>
		</g>
	</g>
	<g>
		<g>
			<path fill="#000099" d="M52.243,34.98c0,0.828-0.672,1.5-1.5,1.5H18.66c-0.829,0-1.5-0.672-1.5-1.5V14.045
				c0-0.828,0.671-1.5,1.5-1.5h32.083c0.828,0,1.5,0.672,1.5,1.5V34.98z"/>
			<g>
				<g>
					<polygon fill="#FFCC00" points="44.079,24.176 43.053,24.168 42.759,23.212 42.433,24.185 41.433,24.17 42.258,24.778 
						41.935,25.726 42.771,25.13 43.569,25.729 43.261,24.752 					"/>
				</g>
				<g>
					<polygon fill="#FFCC00" points="40.851,21.679 41.685,21.082 42.483,21.683 42.176,20.704 42.994,20.127 41.968,20.119 
						41.673,19.163 41.349,20.138 40.347,20.121 41.173,20.731 					"/>
				</g>
				<g>
					<polygon fill="#FFCC00" points="38.794,16.242 38.468,17.215 37.467,17.199 38.293,17.811 37.97,18.757 38.805,18.161 
						39.604,18.762 39.296,17.783 40.114,17.207 39.088,17.198 					"/>
				</g>
				<g>
					<polygon fill="#FFCC00" points="34.744,15.115 34.421,16.088 33.419,16.073 34.244,16.684 33.921,17.63 34.756,17.034 
						35.558,17.634 35.248,16.655 36.067,16.08 35.04,16.07 					"/>
				</g>
				<g>
					<polygon fill="#FFCC00" points="30.739,16.2 30.413,17.173 29.413,17.158 30.237,17.77 29.914,18.716 30.749,18.119 
						31.55,18.721 31.241,17.74 32.06,17.165 31.032,17.156 					"/>
				</g>
				<g>
					<polygon fill="#FFCC00" points="27.733,19.121 27.407,20.095 26.408,20.079 27.233,20.688 26.909,21.638 27.745,21.04 
						28.545,21.642 28.235,20.662 29.055,20.087 28.028,20.078 					"/>
				</g>
				<g>
					<polygon fill="#FFCC00" points="26.66,25.088 27.46,25.688 27.149,24.709 27.97,24.136 26.942,24.126 26.649,23.169 
						26.322,24.144 25.323,24.128 26.149,24.738 25.825,25.685 					"/>
				</g>
				<g>
					<polygon fill="#FFCC00" points="28.028,28.257 27.733,27.302 27.407,28.274 26.408,28.259 27.233,28.87 26.909,29.815 
						27.745,29.222 28.545,29.819 28.235,28.843 29.055,28.267 					"/>
				</g>
				<g>
					<polygon fill="#FFCC00" points="30.948,31.263 30.655,30.308 30.33,31.278 29.33,31.265 30.155,31.875 29.831,32.821 
						30.666,32.226 31.467,32.825 31.157,31.849 31.978,31.271 					"/>
				</g>
				<g>
					<polygon fill="#FFCC00" points="34.998,32.349 34.703,31.392 34.379,32.364 33.378,32.349 34.203,32.96 33.879,33.907 
						34.714,33.312 35.515,33.911 35.206,32.933 36.024,32.356 					"/>
				</g>
				<g>
					<polygon fill="#FFCC00" points="39.047,31.263 38.752,30.308 38.426,31.278 37.426,31.265 38.252,31.875 37.928,32.821 
						38.763,32.226 39.563,32.825 39.254,31.849 40.071,31.271 					"/>
				</g>
				<g>
					<polygon fill="#FFCC00" points="42.052,28.257 41.757,27.302 41.431,28.274 40.431,28.259 41.257,28.87 40.933,29.815 
						41.769,29.222 42.567,29.819 42.259,28.843 43.077,28.267 					"/>
				</g>
			</g>
		</g>
	</g>
</g>
</svg>
