<?xml version="1.0" encoding="utf-8"?>
<!-- Generator: Adobe Illustrator 15.0.0, SVG Export Plug-In . SVG Version: 6.00 Build 0)  -->
<!DOCTYPE svg PUBLIC "-//W3C//DTD SVG 1.1//EN" "http://www.w3.org/Graphics/SVG/1.1/DTD/svg11.dtd">
<svg version="1.1" id="图层_1" xmlns="http://www.w3.org/2000/svg" xmlns:xlink="http://www.w3.org/1999/xlink" x="0px" y="0px"
	 width="54px" height="38px" viewBox="0 0 54 38" enable-background="new 0 0 54 38" xml:space="preserve">
<path fill="#FC0010" d="M52.624,34.209c0,1.104-0.895,2-2,2H3.792c-1.105,0-2-0.896-2-2V3.875c0-1.104,0.895-2,2-2h46.832
	c1.105,0,2,0.896,2,2V34.209z"/>
<path fill="#FFFFFF" d="M35.417,1.875H3.792c-1.105,0-2,0.896-2,2v30.334c0,1.104,0.895,2,2,2h31.625V1.875z"/>
<path fill="#009EED" d="M18.333,1.875H3.792c-1.105,0-2,0.896-2,2v30.334c0,1.104,0.895,2,2,2h14.541V1.875z"/>
</svg>
