<?xml version="1.0" encoding="utf-8"?>
<!-- Generator: Adobe Illustrator 15.0.0, SVG Export Plug-In . SVG Version: 6.00 Build 0)  -->
<!DOCTYPE svg PUBLIC "-//W3C//DTD SVG 1.1//EN" "http://www.w3.org/Graphics/SVG/1.1/DTD/svg11.dtd">
<svg version="1.1" id="图层_1" xmlns="http://www.w3.org/2000/svg" xmlns:xlink="http://www.w3.org/1999/xlink" x="0px" y="0px"
	 width="54px" height="38px" viewBox="0 0 54 38" enable-background="new 0 0 54 38" xml:space="preserve">
<g>
	<path fill="#3C7CBC" d="M52.456,34.27c0,1.104-0.896,2-2,2H3.623c-1.104,0-2-0.896-2-2V3.935c0-1.104,0.896-2,2-2h46.833
		c1.104,0,2,0.896,2,2V34.27z"/>
	<path fill="#BC2F21" stroke="#FFFFFF" stroke-miterlimit="10" d="M30.665,20.186L52.456,5.453V3.935c0-1.104-0.896-2-2-2h-2.012
		L26.332,17.518L7.187,1.935H3.623c-1.104,0-2,0.896-2,2v1.36l19.208,14.557L1.809,35.1c0.316,0.689,1.007,1.17,1.814,1.17H9.71
		l16.455-14.252L43.808,36.27h6.648c0.996,0,1.814-0.73,1.968-1.684L30.665,20.186z"/>
	<polygon fill="#BC2F21" stroke="#FFFFFF" stroke-miterlimit="10" points="30.831,16.685 30.831,1.935 23.165,1.935 23.165,16.685 
		1.623,16.685 1.623,22.852 23.165,22.852 23.165,36.27 30.831,36.27 30.831,22.852 52.456,22.852 52.456,16.685 	"/>
</g>
</svg>
