<?xml version="1.0" encoding="utf-8"?>
<!-- Generator: Adobe Illustrator 15.0.0, SVG Export Plug-In . SVG Version: 6.00 Build 0)  -->
<!DOCTYPE svg PUBLIC "-//W3C//DTD SVG 1.1//EN" "http://www.w3.org/Graphics/SVG/1.1/DTD/svg11.dtd">
<svg version="1.1" id="图层_1" xmlns="http://www.w3.org/2000/svg" xmlns:xlink="http://www.w3.org/1999/xlink" x="0px" y="0px"
	 width="54px" height="38px" viewBox="0 0 54 38" enable-background="new 0 0 54 38" xml:space="preserve">
<g>
	<path fill="#EC0013" d="M52.374,34.292c0,1.104-0.895,2-2,2H3.542c-1.105,0-2-0.896-2-2V3.958c0-1.104,0.895-2,2-2h46.832
		c1.105,0,2,0.896,2,2V34.292z"/>
	<path fill="#FCD200" d="M1.542,25.208v9.083c0,1.104,0.895,2,2,2h46.832c1.105,0,2-0.896,2-2v-9.083H1.542z"/>
	<path fill="#281517" d="M52.374,13.041V3.958c0-1.104-0.895-2-2-2H3.542c-1.105,0-2,0.896-2,2v9.083H52.374z"/>
</g>
</svg>
