<?xml version="1.0" encoding="utf-8"?>
<!-- Generator: Adobe Illustrator 16.0.0, SVG Export Plug-In . SVG Version: 6.00 Build 0)  -->
<!DOCTYPE svg PUBLIC "-//W3C//DTD SVG 1.1//EN" "http://www.w3.org/Graphics/SVG/1.1/DTD/svg11.dtd">
<svg version="1.1" id="图层_1" xmlns="http://www.w3.org/2000/svg" xmlns:xlink="http://www.w3.org/1999/xlink" x="0px" y="0px"
	 width="54px" height="38.01px" viewBox="0 0 54 38.01" enable-background="new 0 0 54 38.01" xml:space="preserve">
<g>
	<polygon fill="#000080" points="1.701,2.182 9.26,2.182 11.15,4.082 13.039,2.182 52.725,2.182 52.725,5.981 50.835,7.881 
		52.725,9.78 52.725,13.578 50.835,15.477 52.725,17.377 52.725,21.176 50.835,23.074 52.725,24.974 52.725,28.772 50.835,30.672 
		52.725,32.572 52.725,36.369 1.701,36.369 1.701,32.572 3.591,30.672 1.701,28.772 1.701,24.974 3.591,23.074 1.701,21.176 
		1.701,13.578 3.591,11.678 1.701,9.78 	"/>
	<path fill="#FFFFFF" d="M9.26,2.182h3.779V9.78h7.559v3.798h-7.559v7.598h39.686v3.798H1.701v-3.798H9.26v-7.598H1.701V9.78H9.26
		V2.182z M20.598,5.981h32.126V9.78H20.598V5.981z M20.598,13.578h32.126v3.799H20.598V13.578z M1.701,21.176h32.126v3.798H1.701
		V21.176z M1.701,28.772h51.024v3.8H1.701V28.772z"/>
</g>
</svg>
