<?xml version="1.0" encoding="utf-8"?>
<!-- Generator: Adobe Illustrator 15.0.0, SVG Export Plug-In . SVG Version: 6.00 Build 0)  -->
<!DOCTYPE svg PUBLIC "-//W3C//DTD SVG 1.1//EN" "http://www.w3.org/Graphics/SVG/1.1/DTD/svg11.dtd">
<svg version="1.1" id="图层_1" xmlns="http://www.w3.org/2000/svg" xmlns:xlink="http://www.w3.org/1999/xlink" x="0px" y="0px"
	 width="54px" height="38px" viewBox="0 0 54 38" enable-background="new 0 0 54 38" xml:space="preserve">
<g>
	<path fill="#F80000" d="M52.354,34.145c0,1.104-0.895,2-2,2H3.522c-1.105,0-2-0.896-2-2V3.811c0-1.104,0.895-2,2-2h46.832
		c1.105,0,2,0.896,2,2V34.145z"/>
	<g>
		<path fill="#FFFFFF" d="M25.39,20.276c0,0-4.417,2.008-6.961-1.606c-0.178-0.179,0.09-0.313,0.223-0.179
			c0.135,0.134,2.365,3.347,6.783,1.294c0,0-2.767,0.135-3.436-1.338c0,0-1.16-5.087-4.15-4.641
			c-2.989,0.446-3.927-1.384-3.927-1.741s-2.231,5.667,2.632,9.057C21.418,24.516,25.39,20.276,25.39,20.276z M17.447,17.063
			l-0.045-0.937l0.67,0.713l0.714-0.356l-0.357,0.669l0.491,0.625L18.026,17.6l-0.312,0.848l-0.178-0.804l-0.849-0.224
			L17.447,17.063z"/>
		<path fill="#FFFFFF" d="M24.742,18.9c0,0-3.263-3.591-0.6-7.118c0.115-0.225,0.324-0.011,0.238,0.158
			c-0.087,0.168-2.463,3.275,0.844,6.853c0,0-0.976-2.594,0.223-3.681c0,0,4.488-2.661,3.147-5.37
			c-1.339-2.71,0.115-4.162,0.456-4.271c0.34-0.109-6.077-0.391-7.817,5.277C19.492,16.416,24.742,18.9,24.742,18.9z M24.8,9.743
			l0.571,0.613l0.879-0.329l-0.476,0.855l0.558,0.571l-0.746-0.135l-0.443,0.659l-0.104-0.904l-0.903-0.038l0.711-0.416L24.8,9.743z
			"/>
		<path fill="#FFFFFF" d="M32.918,12.332c-5.925,0.195-6.569,5.967-6.569,5.967s2.337-4.253,6.537-2.879
			c0.25,0.036,0.116,0.303-0.071,0.276c-0.188-0.026-3.898-1.265-6.208,3.023c0,0,2.136-1.763,3.554-0.984
			c0,0,3.974,3.381,6.102,1.234c2.128-2.147,3.974-1.243,4.188-0.957C40.662,18.298,38.844,12.137,32.918,12.332z M34.267,16.67
			l-0.358,0.713l-0.114-0.75l-0.768-0.207l0.822-0.391l-0.257-0.866l0.623,0.537l0.813-0.329l-0.395,0.74l0.596,0.723L34.267,16.67z
			"/>
		<path fill="#FFFFFF" d="M27.479,19.166c0,0,4.763,0.93,4.734,5.35c0.042,0.248-0.254,0.201-0.285,0.015s0.018-4.097-4.771-4.99
			c0,0,2.331,1.497,2.021,3.085c0,0-2.009,4.814,0.684,6.187c2.693,1.372,2.395,3.406,2.188,3.696
			c-0.207,0.291,5.106-3.318,3.115-8.902C33.173,18.02,27.479,19.166,27.479,19.166z M32.081,26.393l-0.508,0.789l-0.13-0.971
			l-0.789-0.123l0.68-0.338l-0.038-0.793l0.623,0.663l0.747-0.509l-0.321,0.758l0.561,0.674L32.081,26.393z"/>
		<path fill="#FFFFFF" d="M23.166,26.691c-0.222,0.117-0.271-0.178-0.104-0.266c0.167-0.088,3.896-1.269,3.242-6.096
			c0,0-0.69,2.682-2.294,2.886c0,0-5.204-0.396-5.661,2.591c-0.459,2.988-2.483,3.343-2.824,3.236
			c-0.341-0.105,4.753,3.808,9.432,0.165c4.678-3.644,1.804-8.69,1.804-8.69S27.373,25.332,23.166,26.691z M21.923,27.24
			l-0.465,0.744l-0.116-0.83l-0.908-0.234l0.881-0.428l-0.131-0.788l0.534,0.54l0.742-0.285l-0.435,0.799l0.717,0.55L21.923,27.24z"
			/>
	</g>
</g>
</svg>
