<?xml version="1.0" encoding="utf-8"?>
<!-- Generator: Adobe Illustrator 15.0.0, SVG Export Plug-In . SVG Version: 6.00 Build 0)  -->
<!DOCTYPE svg PUBLIC "-//W3C//DTD SVG 1.1//EN" "http://www.w3.org/Graphics/SVG/1.1/DTD/svg11.dtd">
<svg version="1.1" id="图层_1" xmlns="http://www.w3.org/2000/svg" xmlns:xlink="http://www.w3.org/1999/xlink" x="0px" y="0px"
	 width="54px" height="38px" viewBox="0 0 54 38" enable-background="new 0 0 54 38" xml:space="preserve">
<path fill="#FFFFFF" d="M52.571,34.025c0,1.104-0.895,2-2,2H3.739c-1.105,0-2-0.896-2-2V3.691c0-1.104,0.895-2,2-2h46.832
	c1.105,0,2,0.896,2,2V34.025z"/>
<g>
	<circle fill="#000066" cx="27.155" cy="19.159" r="5.343"/>
	<polygon fill="#FFFFFF" points="26.517,14.82 27.108,14.362 27.565,14.82 28.293,14.523 28.695,15.088 29.529,15.062 
		29.638,15.681 30.418,15.761 30.552,16.461 31.117,16.703 31.09,17.295 31.575,17.699 31.521,18.452 31.844,19.043 31.521,19.582 
		31.71,20.281 31.172,20.686 31.252,21.465 30.606,21.654 30.472,22.461 29.665,22.568 29.422,23.242 28.669,23.188 28.238,23.727 
		27.539,23.402 27.155,23.869 26.57,23.482 25.844,23.672 25.521,23.133 24.74,23.16 24.605,22.568 23.826,22.516 23.744,21.762 
		23.072,21.465 23.126,20.846 22.533,20.281 22.884,19.744 22.444,19.159 22.91,18.667 22.642,17.833 23.233,17.51 23.18,16.676 
		23.853,16.649 23.906,15.788 24.66,15.707 24.875,14.981 25.601,15.25 25.871,14.577 	"/>
	<polygon fill="#151572" points="27.27,18.264 27.265,18.129 27.162,14.846 26.974,18.242 26.005,14.954 26.705,18.372 
		25.063,15.465 26.436,18.559 24.148,16.165 26.301,18.721 23.61,17.053 26.221,18.91 23.045,17.967 26.193,19.017 22.668,19.017 
		26.166,19.206 23.045,20.121 26.248,19.42 23.422,21.305 26.328,19.635 24.176,22.031 26.543,19.744 24.982,22.676 26.759,19.77 
		26.06,23.188 26.946,19.824 27.082,23.268 27.243,19.689 28.131,23.16 27.484,19.77 29.127,22.838 27.781,19.582 30.067,22.299 
		27.889,19.393 30.74,21.412 28.615,19.635 31.198,20.309 28.562,19.367 31.387,19.206 28.427,19.043 31.252,18.156 28.454,18.667 
		30.901,16.999 28.185,18.264 30.229,16.165 27.97,17.995 29.261,15.411 27.7,17.914 28.211,14.82 	"/>
	<circle fill="#151572" cx="26.974" cy="19.152" r="1.987"/>
	<circle fill="#000066" cx="26.974" cy="19.152" r="0.91"/>
</g>
<path fill="#007236" d="M1.739,24.483v9.541c0,1.105,0.895,2,2,2h46.832c1.105,0,2-0.895,2-2v-9.541H1.739z"/>
<path fill="#F46523" d="M52.571,13.233V3.691c0-1.104-0.895-2-2-2H3.739c-1.105,0-2,0.896-2,2v9.542H52.571z"/>
</svg>
