<?xml version="1.0" encoding="utf-8"?>
<!-- Generator: Adobe Illustrator 15.0.0, SVG Export Plug-In . SVG Version: 6.00 Build 0)  -->
<!DOCTYPE svg PUBLIC "-//W3C//DTD SVG 1.1//EN" "http://www.w3.org/Graphics/SVG/1.1/DTD/svg11.dtd">
<svg version="1.1" id="图层_1" xmlns="http://www.w3.org/2000/svg" xmlns:xlink="http://www.w3.org/1999/xlink" x="0px" y="0px"
	 width="54px" height="38px" viewBox="0 0 54 38" enable-background="new 0 0 54 38" xml:space="preserve">
<g>
	<path fill="#FFFFFF" d="M52.459,34.271c0,1.104-0.895,2-2,2H3.627c-1.105,0-2-0.896-2-2V3.937c0-1.104,0.895-2,2-2h46.832
		c1.105,0,2,0.896,2,2V34.271z"/>
	<circle fill="#E70012" cx="27.595" cy="19.177" r="9.06"/>
	<path fill="#0F60BE" d="M32.251,16.645c-5-0.875-5.125,3.625-5.5,4.188c-4.651,2.633-7.021-1.078-8.021-3.525
		c-0.127,0.604-0.195,1.229-0.195,1.869c0,5.003,4.056,9.059,9.06,9.059c4.009,0,7.403-2.605,8.598-6.215
		C35.903,18.843,34.641,16.749,32.251,16.645z"/>
	<g>
		
			<rect x="10.295" y="4.24" transform="matrix(0.8786 0.4775 -0.4775 0.8786 5.4604 -4.1899)" fill="#010101" width="1.355" height="8.813"/>
		
			<rect x="14.541" y="6.551" transform="matrix(0.8783 0.4781 -0.4781 0.8783 7.0905 -5.9422)" fill="#010101" width="1.353" height="8.812"/>
		
			<rect x="12.418" y="5.395" transform="matrix(0.8783 0.4781 -0.4781 0.8783 6.2799 -5.068)" fill="#010101" width="1.353" height="8.812"/>
	</g>
	<g>
		
			<rect x="37.982" y="22.677" transform="matrix(0.8785 0.4778 -0.4778 0.8785 17.6387 -15.1798)" fill="#010101" width="1.355" height="8.813"/>
		
			<rect x="42.228" y="24.988" transform="matrix(0.8781 0.4784 -0.4784 0.8781 19.2902 -16.9437)" fill="#010101" width="1.353" height="8.812"/>
		
			<rect x="40.106" y="23.832" transform="matrix(0.8784 0.4778 -0.4778 0.8784 18.4508 -16.0549)" fill="#010101" width="1.353" height="8.813"/>
	</g>
	<g>
		
			<rect x="10.204" y="25.847" transform="matrix(0.7987 -0.6017 0.6017 0.7987 -16.0138 12.6373)" fill="#010101" width="1.354" height="8.813"/>
		
			<rect x="14.067" y="22.941" transform="matrix(0.7991 -0.6012 0.6012 0.7991 -13.4783 14.3557)" fill="#010101" width="1.352" height="8.811"/>
		
			<rect x="12.136" y="24.394" transform="matrix(0.7994 -0.6008 0.6008 0.7994 -14.7327 13.4749)" fill="#010101" width="1.352" height="8.811"/>
	</g>
	<g>
		
			<rect x="38.206" y="7.849" transform="matrix(0.7985 -0.602 0.602 0.7985 0.4566 25.8754)" fill="#010101" width="1.354" height="8.814"/>
		
			<rect x="42.07" y="4.944" transform="matrix(0.7988 -0.6016 0.6016 0.7988 2.9763 27.5977)" fill="#010101" width="1.352" height="8.812"/>
		
			<rect x="40.138" y="6.396" transform="matrix(0.799 -0.6013 0.6013 0.799 1.7065 26.7113)" fill="#010101" width="1.353" height="8.813"/>
	</g>
</g>
</svg>
