<?xml version="1.0" encoding="utf-8"?>
<!-- Generator: Adobe Illustrator 16.0.0, SVG Export Plug-In . SVG Version: 6.00 Build 0)  -->
<!DOCTYPE svg PUBLIC "-//W3C//DTD SVG 1.1//EN" "http://www.w3.org/Graphics/SVG/1.1/DTD/svg11.dtd">
<svg version="1.1" id="图层_1" xmlns="http://www.w3.org/2000/svg" xmlns:xlink="http://www.w3.org/1999/xlink" x="0px" y="0px"
	 width="54px" height="38.01px" viewBox="0 0 54 38.01" enable-background="new 0 0 54 38.01" xml:space="preserve">
<g>
	<rect x="1.701" y="6.519" fill="#FFFFFF" stroke="#000000" stroke-width="0.25" width="51.024" height="25.513"/>
	<g>
		<rect x="1.701" y="6.519" fill="#DC241F" stroke="#000000" stroke-width="0.25" width="51.024" height="1.822"/>
	</g>
	<g>
		<rect x="1.701" y="10.164" fill="#DC241F" stroke="#000000" stroke-width="0.25" width="51.024" height="1.822"/>
	</g>
	<g>
		<rect x="1.701" y="13.808" fill="#DC241F" stroke="#000000" stroke-width="0.25" width="51.024" height="1.822"/>
	</g>
	<g>
		<rect x="1.701" y="17.453" fill="#DC241F" stroke="#000000" stroke-width="0.25" width="51.024" height="1.822"/>
	</g>
	<rect x="1.701" y="6.519" fill="#0035AD" stroke="#000000" stroke-width="0.25" width="25.512" height="14.579"/>
	<circle fill="#FFD100" stroke="#000000" stroke-width="0.25" cx="12.179" cy="13.808" r="5.467"/>
	<circle fill="#0035AD" stroke="#000000" stroke-width="0.25" cx="13.363" cy="13.808" r="4.829"/>
	<rect x="1.701" y="28.388" fill="#DC241F" stroke="#000000" stroke-width="0.25" width="51.024" height="1.822"/>
	<g>
		<rect x="1.701" y="24.743" fill="#DC241F" stroke="#000000" stroke-width="0.25" width="51.024" height="1.821"/>
	</g>
	<g>
		<rect x="1.701" y="21.098" fill="#DC241F" stroke="#000000" stroke-width="0.25" width="51.024" height="1.823"/>
	</g>
	<polygon fill="#FFD100" stroke="#000000" stroke-width="0.25" points="17.717,18.364 17.322,15.548 15.694,17.905 16.59,15.2 
		14.075,16.634 16.085,14.577 13.181,14.803 15.907,13.802 13.19,12.776 16.091,13.027 14.099,10.953 16.602,12.408 15.729,9.696 
		17.337,12.066 17.756,9.253 18.151,12.069 19.78,9.713 18.884,12.417 21.399,10.983 19.389,13.041 22.292,12.813 19.567,13.816 
		22.284,14.841 19.382,14.591 21.375,16.664 18.872,15.21 19.745,17.922 18.137,15.552 	"/>
</g>
</svg>
