<?xml version="1.0" encoding="utf-8"?>
<!-- Generator: Adobe Illustrator 16.0.0, SVG Export Plug-In . SVG Version: 6.00 Build 0)  -->
<!DOCTYPE svg PUBLIC "-//W3C//DTD SVG 1.1//EN" "http://www.w3.org/Graphics/SVG/1.1/DTD/svg11.dtd">
<svg version="1.1" id="图层_1" xmlns="http://www.w3.org/2000/svg" xmlns:xlink="http://www.w3.org/1999/xlink" x="0px" y="0px"
	 width="54px" height="38.01px" viewBox="0 0 54 38.01" enable-background="new 0 0 54 38.01" xml:space="preserve">
<rect x="1.7" y="6.519" fill="#00247D" width="51.024" height="25.513"/>
<g>
	<polygon fill="#FFFFFF" points="787.988,721.048 806.409,721.048 812.109,703.531 817.798,721.048 836.218,721.048 
		821.326,731.876 827.002,749.405 812.109,738.577 797.192,749.405 802.881,731.876 	"/>
	<polygon fill="#CF142B" points="796.155,723.721 808.337,723.721 812.109,712.137 815.869,723.721 828.052,723.721 
		818.201,730.887 821.96,742.471 812.109,735.318 802.246,742.471 806.006,730.887 	"/>
</g>
<g>
	<g>
		<polygon fill="#FFFFFF" points="714.294,795.181 732.715,795.181 738.416,777.652 744.104,795.181 762.537,795.181 
			747.632,806.009 753.32,823.538 738.416,812.711 723.511,823.538 729.199,806.009 		"/>
		<polygon fill="#CF142B" points="722.473,797.855 734.656,797.855 738.416,786.27 742.175,797.855 754.358,797.855 744.507,805.02 
			748.267,816.605 738.416,809.439 728.564,816.605 732.324,805.02 		"/>
	</g>
</g>
<g>
	<g>
		<polygon fill="#FFFFFF" points="853.821,776.798 870.215,776.798 875.281,761.209 880.347,776.798 896.741,776.798 
			883.472,786.429 888.538,802.017 875.281,792.386 862.012,802.017 867.078,786.429 		"/>
		<polygon fill="#CF142B" points="861.084,779.178 871.924,779.178 875.281,768.863 878.625,779.178 889.465,779.178 
			880.701,785.55 884.045,795.853 875.281,789.481 866.504,795.853 869.861,785.55 		"/>
	</g>
</g>
<g>
	<g>
		<polygon fill="#FFFFFF" points="785.339,911.557 805.798,911.557 812.109,892.063 818.433,911.557 838.892,911.557 
			822.339,923.593 828.662,943.088 812.109,931.04 795.569,943.088 801.88,923.593 		"/>
		<polygon fill="#CF142B" points="794.409,914.523 807.935,914.523 812.109,901.633 816.296,914.523 829.822,914.523 
			818.872,922.495 823.059,935.373 812.109,927.414 801.172,935.373 805.347,922.495 		"/>
	</g>
</g>
<g>
	<g>
		<polygon fill="#FFFFFF" points="12.33,6.519 16.582,6.519 16.582,10.772 27.212,10.772 27.212,15.023 16.582,15.023 
			16.582,19.276 12.33,19.276 12.33,15.023 1.7,15.023 1.7,10.772 12.33,10.772 		"/>
		<polygon fill="#FFFFFF" points="1.7,6.519 4.553,6.519 27.212,17.849 27.212,19.276 24.36,19.276 1.7,7.946 		"/>
		<g>
			<polygon fill="#FFFFFF" points="27.212,6.519 24.36,6.519 1.7,17.849 1.7,19.276 4.553,19.276 27.212,7.946 			"/>
		</g>
	</g>
	<g>
		<polygon fill="#FF0000" points="13.181,6.519 15.731,6.519 15.731,11.622 27.212,11.622 27.212,14.174 15.731,14.174 
			15.731,19.276 13.181,19.276 13.181,14.174 1.7,14.174 1.7,11.622 13.181,11.622 		"/>
		<path fill="#FF0000" d="M1.7,6.519l8.504,4.253H8.303L1.7,7.47V6.519z M27.212,6.519h-1.901l-8.504,4.253h1.901L27.212,6.519z"/>
		<g>
			<path fill="#FF0000" d="M27.212,19.276l-8.504-4.253h1.901l6.603,3.302V19.276z M1.7,19.276h1.902l8.504-4.253h-1.902L1.7,19.276
				z"/>
		</g>
	</g>
</g>
</svg>
