<?xml version="1.0" encoding="utf-8"?>
<!-- Generator: Adobe Illustrator 15.0.0, SVG Export Plug-In . SVG Version: 6.00 Build 0)  -->
<!DOCTYPE svg PUBLIC "-//W3C//DTD SVG 1.1//EN" "http://www.w3.org/Graphics/SVG/1.1/DTD/svg11.dtd">
<svg version="1.1" id="图层_1" xmlns="http://www.w3.org/2000/svg" xmlns:xlink="http://www.w3.org/1999/xlink" x="0px" y="0px"
	 width="54px" height="38px" viewBox="0 0 54 38" enable-background="new 0 0 54 38" xml:space="preserve">
<g>
	<path fill="#676868" d="M52.459,34.201c0,1.105-0.895,2-2,2H3.627c-1.104,0-2-0.895-2-2V3.868c0-1.104,0.896-2,2-2h46.832
		c1.105,0,2,0.896,2,2V34.201z"/>
	<path fill="#818181" d="M52.459,16.245V3.868c0-1.104-0.895-2-2-2H3.627c-1.104,0-2,0.896-2,2v11.232
		C7.463,17.689,27.643,25.035,52.459,16.245z"/>
	<path fill="#FFFFFF" d="M16.418,18.285l0.25,4c0,0,11.25,10.25,21.25-0.5c0-4.25,0-4.25,0-4.25S29.418,28.285,16.418,18.285z"/>
	<path fill="#FFFFFF" d="M16.418,24.785l0.25,4c0,0,11.25,10.25,21.25-0.5c0-4.25,0-4.25,0-4.25S29.418,34.785,16.418,24.785z"/>
	<path fill="#FFFFFF" d="M27.418,6.285c-6.213,0-11.25,3.078-11.25,6.875s5.037,6.875,11.25,6.875c6.212,0,11.25-3.079,11.25-6.875
		S33.631,6.285,27.418,6.285z M22.801,13.734c-0.971,0-1.758-0.481-1.758-1.074s0.787-1.074,1.758-1.074s1.758,0.481,1.758,1.074
		S23.772,13.734,22.801,13.734z"/>
</g>
</svg>
