<?xml version="1.0" encoding="utf-8"?>
<!-- Generator: Adobe Illustrator 16.0.0, SVG Export Plug-In . SVG Version: 6.00 Build 0)  -->
<!DOCTYPE svg PUBLIC "-//W3C//DTD SVG 1.1//EN" "http://www.w3.org/Graphics/SVG/1.1/DTD/svg11.dtd">
<svg version="1.1" id="图层_1" xmlns="http://www.w3.org/2000/svg" xmlns:xlink="http://www.w3.org/1999/xlink" x="0px" y="0px"
	 width="54px" height="38.01px" viewBox="0 0 54 38.01" enable-background="new 0 0 54 38.01" xml:space="preserve">
<g>
	<rect x="1.701" y="2.268" fill="#FFFFFF" stroke="#000000" width="51.024" height="34.016"/>
	<rect x="14.457" y="2.268" fill="#006600" width="38.268" height="34.016"/>
	<circle fill="#FFFFFF" cx="33.591" cy="19.275" r="10.204"/>
	<circle fill="#006600" cx="36.199" cy="16.956" r="9.354"/>
	<g>
		<g>
			<polygon fill="#FFFFFF" points="6.506,36.722 3.271,35.671 2.745,37.288 			"/>
			<g>
				<polygon fill="#FFFFFF" points="6.506,36.722 3.27,37.774 2.744,36.156 				"/>
			</g>
		</g>
		<g>
			<g>
				<polygon fill="#FFFFFF" points="4.155,39.958 4.155,36.556 2.454,36.556 				"/>
				<g>
					<polygon fill="#FFFFFF" points="4.155,39.958 2.155,37.206 3.531,36.205 					"/>
				</g>
			</g>
			<g>
				<g>
					<polygon fill="#FFFFFF" points="4.154,33.487 2.155,36.239 3.531,37.239 					"/>
					<g>
						<polygon fill="#FFFFFF" points="4.154,33.487 4.154,36.889 2.454,36.888 						"/>
					</g>
				</g>
				<g>
					<g>
						<polygon fill="#FFFFFF" points="0.352,38.721 3.586,37.671 3.06,36.053 						"/>
						<g>
							<polygon fill="#FFFFFF" points="0.352,38.721 2.352,35.97 3.727,36.97 							"/>
						</g>
					</g>
					<g>
						<g>
							<polygon fill="#FFFFFF" points="0.352,34.722 2.351,37.474 3.726,36.475 							"/>
							<g>
								<polygon fill="#FFFFFF" points="0.352,34.722 3.587,35.774 3.061,37.392 								"/>
							</g>
						</g>
					</g>
				</g>
			</g>
		</g>
	</g>
</g>
</svg>
