<?xml version="1.0" encoding="utf-8"?>
<!-- Generator: Adobe Illustrator 16.0.0, SVG Export Plug-In . SVG Version: 6.00 Build 0)  -->
<!DOCTYPE svg PUBLIC "-//W3C//DTD SVG 1.1//EN" "http://www.w3.org/Graphics/SVG/1.1/DTD/svg11.dtd">
<svg version="1.1" id="图层_1" xmlns="http://www.w3.org/2000/svg" xmlns:xlink="http://www.w3.org/1999/xlink" x="0px" y="0px"
	 width="54px" height="38.01px" viewBox="0 0 54 38.01" enable-background="new 0 0 54 38.01" xml:space="preserve">
<g>
	<rect x="1.701" y="6.52" fill="#0038A8" width="51.024" height="12.756"/>
	<rect x="1.701" y="19.276" fill="#CE1126" width="51.024" height="12.755"/>
	<polygon fill="#FFFFFF" points="23.906,19.276 1.701,32.031 1.701,6.52 	"/>
	<polygon fill="#FCD116" points="4.7,29.577 3.714,29.001 2.87,29.772 3.112,28.656 2.119,28.09 3.255,27.977 3.486,26.857 
		3.946,27.903 5.082,27.776 4.229,28.536 	"/>
	<path fill="#FCD116" d="M7.693,16.968L6.861,15.54l-0.478-0.054l1.137,1.616L7.693,16.968z M7.047,17.621l-1.748-1.345
		l-0.062-0.782l0.707-0.024l1.445,1.767L7.047,17.621z M6.782,17.928l-1.438-0.812l-0.061-0.478l1.631,1.115L6.782,17.928z"/>
	<path fill="#FCD116" d="M9.749,16.674l0.434-1.595l-0.296-0.378l-0.354,1.944L9.749,16.674z M8.831,16.673l-0.268-2.189
		l0.514-0.594l0.513,0.487l-0.246,2.269L8.831,16.673z M8.425,16.699l-0.431-1.595l0.297-0.378l0.35,1.945L8.425,16.699z"/>
	<path fill="#FCD116" d="M11.416,17.959l1.448-0.795l0.066-0.476l-1.646,1.095L11.416,17.959z M10.778,17.296l1.389-1.711
		l0.784-0.043l0.006,0.707l-1.804,1.398L10.778,17.296z M10.478,17.022l0.85-1.416l0.479-0.047l-1.159,1.602L10.478,17.022z"/>
	<path fill="#FCD116" d="M11.673,19.956l1.594,0.434l0.379-0.295l-1.945-0.355L11.673,19.956z M11.674,19.037l2.189-0.267
		l0.594,0.514l-0.487,0.513l-2.269-0.246L11.674,19.037z M11.648,18.632l1.595-0.43l0.379,0.297l-1.945,0.35L11.648,18.632z"/>
	<path fill="#FCD116" d="M10.46,21.579l0.837,1.424l0.479,0.052l-1.146-1.611L10.46,21.579z M11.102,20.922l1.754,1.338l0.066,0.782
		l-0.707,0.026l-1.452-1.759L11.102,20.922z M11.367,20.614l1.441,0.807l0.063,0.478l-1.637-1.109L11.367,20.614z"/>
	<path fill="#FCD116" d="M8.411,21.883L7.988,23.48l0.299,0.378l0.34-1.948L8.411,21.883z M9.33,21.878l0.283,2.187l-0.51,0.598
		L8.586,24.18l0.23-2.271L9.33,21.878z M9.734,21.849l0.442,1.591L9.88,23.821l-0.362-1.943L9.734,21.849z"/>
	<path fill="#FCD116" d="M6.748,20.631l-1.436,0.817l-0.059,0.477l1.628-1.121L6.748,20.631z M7.395,21.283l-1.362,1.733
		L5.25,23.071l-0.017-0.706l1.782-1.426L7.395,21.283z M7.699,21.552l-0.826,1.43l-0.478,0.056l1.133-1.62L7.699,21.552z"/>
	<path fill="#FCD116" d="M6.464,18.615l-1.597-0.423l-0.376,0.299l1.947,0.34L6.464,18.615z M6.469,19.533l-2.187,0.282l-0.597-0.51
		l0.483-0.515l2.27,0.23L6.469,19.533z M6.498,19.94l-1.591,0.44l-0.38-0.295l1.944-0.361L6.498,19.94z"/>
	<circle fill="#FCD116" cx="9.07" cy="19.276" r="2.692"/>
	<polygon fill="#FCD116" points="18.329,20.199 19.005,19.277 18.328,18.357 19.413,18.716 20.079,17.786 20.074,18.928 
		21.163,19.275 20.075,19.623 20.082,20.766 19.414,19.839 	"/>
	<polygon fill="#FCD116" points="4.7,8.695 3.714,9.271 2.87,8.502 3.112,9.618 2.119,10.182 3.255,10.297 3.486,11.416 
		3.946,10.37 5.082,10.497 4.229,9.736 	"/>
</g>
</svg>
