<?xml version="1.0" encoding="utf-8"?>
<!-- Generator: Adobe Illustrator 16.0.0, SVG Export Plug-In . SVG Version: 6.00 Build 0)  -->
<!DOCTYPE svg PUBLIC "-//W3C//DTD SVG 1.1//EN" "http://www.w3.org/Graphics/SVG/1.1/DTD/svg11.dtd">
<svg version="1.1" id="图层_1" xmlns="http://www.w3.org/2000/svg" xmlns:xlink="http://www.w3.org/1999/xlink" x="0px" y="0px"
	 width="54px" height="38px" viewBox="0 0 54 38" enable-background="new 0 0 54 38" xml:space="preserve">
<g>
	<path fill="#C02620" d="M45.078,28.961c0,1.104-0.896,2-2,2h-39.5c-1.104,0-2-0.896-2-2V3.627c0-1.104,0.896-2,2-2h39.5
		c1.104,0,2,0.896,2,2V28.961z"/>
	<polygon fill="#F0DB6A" points="5.411,9.961 9.744,9.961 10.911,5.627 12.244,9.794 16.244,9.794 13.078,12.627 14.578,16.794 
		11.244,14.294 7.744,16.627 9.078,12.627 	"/>
	<polygon fill="#F0DB6A" points="20.398,4.963 21.665,4.963 22.006,3.697 22.396,4.915 23.565,4.915 22.639,5.743 23.078,6.961 
		22.104,6.23 21.081,6.912 21.47,5.743 	"/>
	<polygon fill="#F0DB6A" points="25.039,9.194 26.306,9.194 26.646,7.928 27.037,9.146 28.205,9.146 27.28,9.974 27.719,11.192 
		26.744,10.461 25.721,11.143 26.111,9.974 	"/>
	<g>
		<path fill="#FFFFFF" d="M52.343,35.195c0,0.756-0.612,1.369-1.37,1.369H18.89c-0.756,0-1.37-0.613-1.37-1.369v-20.78
			c0-0.756,0.614-1.37,1.37-1.37h32.083c0.758,0,1.37,0.614,1.37,1.37V35.195z"/>
		<g>
			<rect x="17.52" y="27.545" fill="#D13419" width="34.823" height="2.283"/>
			<rect x="17.52" y="19.781" fill="#D13419" width="34.823" height="2.283"/>
			<rect x="17.52" y="31.427" fill="#D13419" width="34.823" height="2.284"/>
			<rect x="17.52" y="23.663" fill="#D13419" width="34.823" height="2.284"/>
			<rect x="17.52" y="15.899" fill="#D13419" width="34.823" height="2.284"/>
			<path fill="#D13419" d="M17.531,35.309c0.059,0.703,0.641,1.256,1.359,1.256h32.083c0.719,0,1.301-0.553,1.359-1.256H17.531z"/>
			<path fill="#D13419" d="M52.332,14.301c-0.061-0.702-0.641-1.256-1.359-1.256H18.89c-0.717,0-1.3,0.554-1.359,1.256H52.332z"/>
		</g>
		<path fill="#63A7DC" d="M34.874,25.945V13.16c0-0.04,0.009-0.076,0.013-0.115H18.89c-0.756,0-1.37,0.619-1.37,1.383v11.519h17.354
			V25.945z"/>
		<g>
			<rect x="19.136" y="13.159" fill="#FFFFFF" width="1.541" height="1.541"/>
			<rect x="22.281" y="13.159" fill="#FFFFFF" width="1.541" height="1.541"/>
			<rect x="25.427" y="13.159" fill="#FFFFFF" width="1.542" height="1.541"/>
			<rect x="28.572" y="13.159" fill="#FFFFFF" width="1.541" height="1.541"/>
			<rect x="31.717" y="13.159" fill="#FFFFFF" width="1.541" height="1.541"/>
			<rect x="17.563" y="14.729" fill="#FFFFFF" width="1.542" height="1.542"/>
			<rect x="20.708" y="14.729" fill="#FFFFFF" width="1.542" height="1.542"/>
			<rect x="23.854" y="14.729" fill="#FFFFFF" width="1.542" height="1.542"/>
			<rect x="26.999" y="14.729" fill="#FFFFFF" width="1.542" height="1.542"/>
			<rect x="30.145" y="14.729" fill="#FFFFFF" width="1.541" height="1.542"/>
			<rect x="33.29" y="14.729" fill="#FFFFFF" width="1.541" height="1.542"/>
			<rect x="19.136" y="16.299" fill="#FFFFFF" width="1.541" height="1.541"/>
			<rect x="22.281" y="16.299" fill="#FFFFFF" width="1.541" height="1.541"/>
			<rect x="25.427" y="16.299" fill="#FFFFFF" width="1.542" height="1.541"/>
			<rect x="28.572" y="16.299" fill="#FFFFFF" width="1.541" height="1.541"/>
			<rect x="31.717" y="16.299" fill="#FFFFFF" width="1.541" height="1.541"/>
			<rect x="17.563" y="17.868" fill="#FFFFFF" width="1.542" height="1.542"/>
			<rect x="20.708" y="17.868" fill="#FFFFFF" width="1.542" height="1.542"/>
			<rect x="23.854" y="17.868" fill="#FFFFFF" width="1.542" height="1.542"/>
			<rect x="26.999" y="17.868" fill="#FFFFFF" width="1.542" height="1.542"/>
			<rect x="30.145" y="17.868" fill="#FFFFFF" width="1.541" height="1.542"/>
			<rect x="33.29" y="17.868" fill="#FFFFFF" width="1.541" height="1.542"/>
			<rect x="19.136" y="19.438" fill="#FFFFFF" width="1.541" height="1.541"/>
			<rect x="22.281" y="19.438" fill="#FFFFFF" width="1.541" height="1.541"/>
			<rect x="25.427" y="19.438" fill="#FFFFFF" width="1.542" height="1.541"/>
			<rect x="28.572" y="19.438" fill="#FFFFFF" width="1.541" height="1.541"/>
			<rect x="31.717" y="19.438" fill="#FFFFFF" width="1.541" height="1.541"/>
			<rect x="17.563" y="21.008" fill="#FFFFFF" width="1.542" height="1.542"/>
			<rect x="20.708" y="21.008" fill="#FFFFFF" width="1.542" height="1.542"/>
			<rect x="23.854" y="21.008" fill="#FFFFFF" width="1.542" height="1.542"/>
			<rect x="26.999" y="21.008" fill="#FFFFFF" width="1.542" height="1.542"/>
			<rect x="30.145" y="21.008" fill="#FFFFFF" width="1.541" height="1.542"/>
			<rect x="33.29" y="21.008" fill="#FFFFFF" width="1.541" height="1.542"/>
			<rect x="19.136" y="22.578" fill="#FFFFFF" width="1.541" height="1.541"/>
			<rect x="22.281" y="22.578" fill="#FFFFFF" width="1.541" height="1.541"/>
			<rect x="25.427" y="22.578" fill="#FFFFFF" width="1.542" height="1.541"/>
			<rect x="28.572" y="22.578" fill="#FFFFFF" width="1.541" height="1.541"/>
			<rect x="31.717" y="22.578" fill="#FFFFFF" width="1.541" height="1.541"/>
			<rect x="17.563" y="24.148" fill="#FFFFFF" width="1.542" height="1.541"/>
			<rect x="20.708" y="24.148" fill="#FFFFFF" width="1.542" height="1.541"/>
			<rect x="23.854" y="24.148" fill="#FFFFFF" width="1.542" height="1.541"/>
			<rect x="26.999" y="24.148" fill="#FFFFFF" width="1.542" height="1.541"/>
			<rect x="30.145" y="24.148" fill="#FFFFFF" width="1.541" height="1.541"/>
			<rect x="33.29" y="24.148" fill="#FFFFFF" width="1.541" height="1.541"/>
		</g>
	</g>
</g>
<g>
	<path fill="#FFFFFF" d="M45.029,29.185c0,0.945-0.77,1.713-1.715,1.713H3.159c-0.947,0-1.714-0.768-1.714-1.713V3.175
		c0-0.945,0.768-1.714,1.714-1.714h40.155c0.945,0,1.715,0.769,1.715,1.714V29.185z"/>
	<g>
		<rect x="1.445" y="19.608" fill="#D13419" width="43.584" height="2.858"/>
		<rect x="1.445" y="9.891" fill="#D13419" width="43.584" height="2.858"/>
		<rect x="1.445" y="24.465" fill="#D13419" width="43.584" height="2.859"/>
		<rect x="1.445" y="14.749" fill="#D13419" width="43.584" height="2.859"/>
		<rect x="1.445" y="5.033" fill="#D13419" width="43.584" height="2.856"/>
		<path fill="#D13419" d="M1.458,29.325c0.074,0.878,0.802,1.572,1.7,1.572h40.154c0.897,0,1.628-0.694,1.699-1.572H1.458z"/>
		<path fill="#D13419" d="M45.014,3.032c-0.074-0.878-0.8-1.571-1.699-1.571H3.159c-0.898,0-1.626,0.693-1.7,1.571H45.014z"/>
	</g>
	<path fill="#63A7DC" d="M23.165,17.607V1.605c0-0.051,0.009-0.094,0.013-0.144H3.159c-0.947,0-1.714,0.774-1.714,1.73v14.416
		H23.165z"/>
	<g>
		<rect x="3.467" y="1.603" fill="#FFFFFF" width="1.93" height="1.93"/>
		<rect x="7.402" y="1.603" fill="#FFFFFF" width="1.93" height="1.93"/>
		<rect x="11.34" y="1.603" fill="#FFFFFF" width="1.929" height="1.93"/>
		<rect x="15.275" y="1.603" fill="#FFFFFF" width="1.93" height="1.93"/>
		<rect x="19.212" y="1.603" fill="#FFFFFF" width="1.93" height="1.93"/>
		<rect x="1.498" y="3.568" fill="#FFFFFF" width="1.93" height="1.93"/>
		<rect x="5.436" y="3.568" fill="#FFFFFF" width="1.928" height="1.93"/>
		<rect x="9.371" y="3.568" fill="#FFFFFF" width="1.927" height="1.93"/>
		<rect x="13.307" y="3.568" fill="#FFFFFF" width="1.93" height="1.93"/>
		<rect x="17.246" y="3.568" fill="#FFFFFF" width="1.929" height="1.93"/>
		<rect x="21.18" y="3.568" fill="#FFFFFF" width="1.931" height="1.93"/>
		<rect x="3.467" y="5.534" fill="#FFFFFF" width="1.93" height="1.93"/>
		<rect x="7.402" y="5.534" fill="#FFFFFF" width="1.93" height="1.93"/>
		<rect x="11.34" y="5.534" fill="#FFFFFF" width="1.929" height="1.93"/>
		<rect x="15.275" y="5.534" fill="#FFFFFF" width="1.93" height="1.93"/>
		<rect x="19.212" y="5.534" fill="#FFFFFF" width="1.93" height="1.93"/>
		<rect x="1.498" y="7.498" fill="#FFFFFF" width="1.93" height="1.93"/>
		<rect x="5.436" y="7.498" fill="#FFFFFF" width="1.928" height="1.93"/>
		<rect x="9.371" y="7.498" fill="#FFFFFF" width="1.927" height="1.93"/>
		<rect x="13.307" y="7.498" fill="#FFFFFF" width="1.93" height="1.93"/>
		<rect x="17.246" y="7.498" fill="#FFFFFF" width="1.929" height="1.93"/>
		<rect x="21.18" y="7.498" fill="#FFFFFF" width="1.931" height="1.93"/>
		<rect x="3.467" y="9.462" fill="#FFFFFF" width="1.93" height="1.93"/>
		<rect x="7.402" y="9.462" fill="#FFFFFF" width="1.93" height="1.93"/>
		<rect x="11.34" y="9.462" fill="#FFFFFF" width="1.929" height="1.93"/>
		<rect x="15.275" y="9.462" fill="#FFFFFF" width="1.93" height="1.93"/>
		<rect x="19.212" y="9.462" fill="#FFFFFF" width="1.93" height="1.93"/>
		<rect x="1.498" y="11.426" fill="#FFFFFF" width="1.93" height="1.93"/>
		<rect x="5.436" y="11.426" fill="#FFFFFF" width="1.928" height="1.93"/>
		<rect x="9.371" y="11.426" fill="#FFFFFF" width="1.927" height="1.93"/>
		<rect x="13.307" y="11.426" fill="#FFFFFF" width="1.93" height="1.93"/>
		<rect x="17.246" y="11.426" fill="#FFFFFF" width="1.929" height="1.93"/>
		<rect x="21.18" y="11.426" fill="#FFFFFF" width="1.931" height="1.93"/>
		<rect x="3.467" y="13.393" fill="#FFFFFF" width="1.93" height="1.927"/>
		<rect x="7.402" y="13.393" fill="#FFFFFF" width="1.93" height="1.927"/>
		<rect x="11.34" y="13.393" fill="#FFFFFF" width="1.929" height="1.927"/>
		<rect x="15.275" y="13.393" fill="#FFFFFF" width="1.93" height="1.927"/>
		<rect x="19.212" y="13.393" fill="#FFFFFF" width="1.93" height="1.927"/>
		<rect x="1.498" y="15.357" fill="#FFFFFF" width="1.93" height="1.93"/>
		<rect x="5.436" y="15.357" fill="#FFFFFF" width="1.928" height="1.93"/>
		<rect x="9.371" y="15.357" fill="#FFFFFF" width="1.927" height="1.93"/>
		<rect x="13.307" y="15.357" fill="#FFFFFF" width="1.93" height="1.93"/>
		<rect x="17.246" y="15.357" fill="#FFFFFF" width="1.929" height="1.93"/>
		<rect x="21.18" y="15.357" fill="#FFFFFF" width="1.931" height="1.93"/>
	</g>
</g>
<g>
	<g>
		<path fill="#3C7CBC" d="M52.332,35.143c0,0.758-0.613,1.373-1.373,1.373H18.793c-0.758,0-1.374-0.615-1.374-1.373V14.308
			c0-0.759,0.616-1.374,1.374-1.374h32.166c0.76,0,1.373,0.614,1.373,1.374V35.143z"/>
		<path fill="#BC2F21" stroke="#FFFFFF" stroke-miterlimit="10" d="M37.366,25.469l14.966-10.118v-1.043
			c0-0.759-0.613-1.374-1.373-1.374h-1.383L34.391,23.637L21.242,12.934h-2.449c-0.758,0-1.374,0.614-1.374,1.374v0.934
			l13.193,9.998L17.548,35.713c0.217,0.473,0.692,0.803,1.246,0.803h4.181l11.302-9.789l12.118,9.789h4.564
			c0.685,0,1.247-0.501,1.352-1.155L37.366,25.469z"/>
		<polygon fill="#BC2F21" stroke="#FFFFFF" stroke-miterlimit="10" points="37.479,23.065 37.479,12.934 32.215,12.934 
			32.215,23.065 17.419,23.065 17.419,27.3 32.215,27.3 32.215,36.516 37.479,36.516 37.479,27.3 52.332,27.3 52.332,23.065 		"/>
	</g>
</g>
</svg>
