<?xml version="1.0" encoding="utf-8"?>
<!-- Generator: Adobe Illustrator 15.0.0, SVG Export Plug-In . SVG Version: 6.00 Build 0)  -->
<!DOCTYPE svg PUBLIC "-//W3C//DTD SVG 1.1//EN" "http://www.w3.org/Graphics/SVG/1.1/DTD/svg11.dtd">
<svg version="1.1" id="图层_1" xmlns="http://www.w3.org/2000/svg" xmlns:xlink="http://www.w3.org/1999/xlink" x="0px" y="0px"
	 width="54px" height="38px" viewBox="0 0 54 38" enable-background="new 0 0 54 38" xml:space="preserve">
<g>
	<path fill="#FFFFFB" d="M52.459,12.833V3.937c0-1.104-0.895-2-2-2H3.627c-1.105,0-2,0.896-2,2v8.896H52.459z"/>
	<path fill="#F3050B" d="M1.627,24.333v9.938c0,1.104,0.895,2,2,2h46.832c1.105,0,2-0.896,2-2v-9.938H1.627z"/>
	<g>
		<path fill="#0003FF" d="M1.627,34.271v0.155c0,1.019,0.895,1.845,2,1.845C2.521,36.271,1.627,35.375,1.627,34.271z"/>
		<path fill="#0003FF" d="M50.459,36.271c1.105,0,2-0.826,2-1.845v-0.155C52.459,35.375,51.564,36.271,50.459,36.271z"/>
		<rect x="1.627" y="12.833" fill="#0003FF" width="50.832" height="11.5"/>
	</g>
</g>
</svg>
