<?xml version="1.0" encoding="utf-8"?>
<!-- Generator: Adobe Illustrator 15.0.0, SVG Export Plug-In . SVG Version: 6.00 Build 0)  -->
<!DOCTYPE svg PUBLIC "-//W3C//DTD SVG 1.1//EN" "http://www.w3.org/Graphics/SVG/1.1/DTD/svg11.dtd">
<svg version="1.1" id="图层_1" xmlns="http://www.w3.org/2000/svg" xmlns:xlink="http://www.w3.org/1999/xlink" x="0px" y="0px"
	 width="54px" height="38px" viewBox="0 0 54 38" enable-background="new 0 0 54 38" xml:space="preserve">
<g>
	<path fill="#FFFFFF" d="M52.543,33.936c0,1.105-0.895,2-2,2H3.711c-1.105,0-2-0.895-2-2V3.604c0-1.104,0.895-2,2-2h46.832
		c1.105,0,2,0.896,2,2V33.936z"/>
	<path fill="#BE0027" d="M52.543,18.833V3.604c0-1.104-0.895-2-2-2H3.711c-1.105,0-2,0.896-2,2v15.229H52.543z"/>
	<g>
		<polygon fill="#FFFFFF" points="13.427,5.428 14.693,5.428 15.034,4.162 15.425,5.38 16.593,5.38 15.667,6.208 16.106,7.426 
			15.132,6.695 14.108,7.377 14.499,6.208 		"/>
		<polygon fill="#FFFFFF" points="10.427,7.928 11.693,7.928 12.034,6.662 12.425,7.88 13.593,7.88 12.667,8.708 13.106,9.926 
			12.132,9.195 11.108,9.877 11.499,8.708 		"/>
		<polygon fill="#FFFFFF" points="16.927,7.803 18.193,7.803 18.534,6.537 18.925,7.755 20.093,7.755 19.167,8.583 19.606,9.801 
			18.632,9.07 17.608,9.752 17.999,8.583 		"/>
		<polygon fill="#FFFFFF" points="11.419,11.756 12.686,11.756 13.026,10.49 13.417,11.708 14.585,11.708 13.659,12.536 
			14.099,13.754 13.124,13.023 12.101,13.705 12.491,12.536 		"/>
		<polygon fill="#FFFFFF" points="15.427,11.803 16.693,11.803 17.034,10.537 17.425,11.755 18.593,11.755 17.667,12.583 
			18.106,13.801 17.132,13.07 16.108,13.752 16.499,12.583 		"/>
		<path fill="#FFFFFF" d="M7.88,9.646c0-3.178,2.359-5.797,5.421-6.221c-0.597-0.18-1.229-0.279-1.884-0.279
			c-3.59,0-6.5,2.91-6.5,6.5s2.91,6.5,6.5,6.5c0.655,0,1.287-0.099,1.884-0.279C10.239,15.443,7.88,12.823,7.88,9.646z"/>
	</g>
</g>
</svg>
