<?xml version="1.0" encoding="utf-8"?>
<!-- Generator: Adobe Illustrator 15.0.0, SVG Export Plug-In . SVG Version: 6.00 Build 0)  -->
<!DOCTYPE svg PUBLIC "-//W3C//DTD SVG 1.1//EN" "http://www.w3.org/Graphics/SVG/1.1/DTD/svg11.dtd">
<svg version="1.1" id="图层_1" xmlns="http://www.w3.org/2000/svg" xmlns:xlink="http://www.w3.org/1999/xlink" x="0px" y="0px"
	 width="54px" height="38px" viewBox="0 0 54 38" enable-background="new 0 0 54 38" xml:space="preserve">
<g>
	<path fill="#D1CBCB" d="M52.233,34.046c0,0.968-0.783,1.751-1.751,1.751h-41c-0.969,0-1.751-0.783-1.751-1.751V7.491
		c0-0.967,0.782-1.751,1.751-1.751h41c0.968,0,1.751,0.784,1.751,1.751V34.046z"/>
	<path fill="#EDEDED" d="M35.456,23.482c0,0.727-0.588,1.314-1.314,1.314H3.372c-0.727,0-1.314-0.588-1.314-1.314V3.554
		c0-0.726,0.588-1.314,1.314-1.314h30.77c0.727,0,1.314,0.588,1.314,1.314V23.482z"/>
</g>
</svg>
