<?xml version="1.0" encoding="utf-8"?>
<!-- Generator: Adobe Illustrator 16.0.0, SVG Export Plug-In . SVG Version: 6.00 Build 0)  -->
<!DOCTYPE svg PUBLIC "-//W3C//DTD SVG 1.1//EN" "http://www.w3.org/Graphics/SVG/1.1/DTD/svg11.dtd">
<svg version="1.1" id="图层_1" xmlns="http://www.w3.org/2000/svg" xmlns:xlink="http://www.w3.org/1999/xlink" x="0px" y="0px"
	 width="54px" height="38.01px" viewBox="0 0 54 38.01" enable-background="new 0 0 54 38.01" xml:space="preserve">
<rect x="1.7" y="2.268" fill="#F7D117" width="51.024" height="11.905"/>
<rect x="1.7" y="13.607" fill="#0033AB" width="51.024" height="11.906"/>
<rect x="1.7" y="24.946" fill="#CF142B" width="51.024" height="11.338"/>
<g>
	<polygon fill="#FFFFFF" points="24.695,17.558 25.146,14.354 26.664,17.211 23.756,15.793 26.942,15.231 	"/>
</g>
<g>
	<polygon fill="#FFFFFF" points="27.761,17.211 29.279,14.354 29.73,17.558 27.482,15.231 30.669,15.793 	"/>
</g>
<g>
	<polygon fill="#FFFFFF" points="21.933,18.933 21.26,15.768 23.664,17.933 20.446,17.595 23.248,15.977 	"/>
</g>
<g>
	<polygon fill="#FFFFFF" points="30.761,17.933 33.165,15.768 32.492,18.932 31.177,15.977 33.979,17.595 	"/>
</g>
<g>
	<polygon fill="#FFFFFF" points="19.807,21.17 18.092,18.427 21.092,19.639 17.953,20.421 20.032,17.943 	"/>
</g>
<g>
	<polygon fill="#FFFFFF" points="33.333,19.638 36.333,18.427 34.618,21.17 34.393,17.943 36.472,20.421 	"/>
</g>
<g>
	<polygon fill="#FFFFFF" points="18.574,23.999 16.025,22.007 19.258,22.12 16.576,23.93 17.683,20.889 	"/>
</g>
<g>
	<polygon fill="#FFFFFF" points="35.167,22.12 38.4,22.007 35.851,23.999 36.742,20.889 37.849,23.929 	"/>
</g>
</svg>
