<?xml version="1.0" encoding="utf-8"?>
<!-- Generator: Adobe Illustrator 16.0.0, SVG Export Plug-In . SVG Version: 6.00 Build 0)  -->
<!DOCTYPE svg PUBLIC "-//W3C//DTD SVG 1.1//EN" "http://www.w3.org/Graphics/SVG/1.1/DTD/svg11.dtd">
<svg version="1.1" id="图层_1" xmlns="http://www.w3.org/2000/svg" xmlns:xlink="http://www.w3.org/1999/xlink" x="0px" y="0px"
	 width="54px" height="38.01px" viewBox="0 0 54 38.01" enable-background="new 0 0 54 38.01" xml:space="preserve">
<g>
	<rect x="1.701" y="2.267" fill="#CE1126" width="51.024" height="34.017"/>
	<g>
		<g>
			<polygon fill="#FCD116" points="4.553,0.484 3.677,3.18 5.025,3.618 			"/>
			<g>
				<polygon fill="#FCD116" points="4.553,0.484 5.429,3.18 4.081,3.618 				"/>
			</g>
		</g>
		<g>
			<g>
				<polygon fill="#FCD116" points="7.249,2.443 4.414,2.443 4.414,3.86 				"/>
				<g>
					<polygon fill="#FCD116" points="7.249,2.443 4.956,4.109 4.123,2.962 					"/>
				</g>
			</g>
			<g>
				<g>
					<polygon fill="#FCD116" points="1.857,2.443 4.151,4.109 4.984,2.962 					"/>
					<g>
						<polygon fill="#FCD116" points="1.857,2.443 4.692,2.443 4.692,3.86 						"/>
					</g>
				</g>
				<g>
					<g>
						<polygon fill="#FCD116" points="6.219,5.612 5.344,2.916 3.995,3.354 						"/>
						<g>
							<polygon fill="#FCD116" points="6.219,5.612 3.926,3.946 4.759,2.799 							"/>
						</g>
					</g>
					<g>
						<g>
							<polygon fill="#FCD116" points="2.887,5.612 5.18,3.946 4.347,2.799 							"/>
							<g>
								<polygon fill="#FCD116" points="2.887,5.612 3.763,2.916 5.111,3.354 								"/>
							</g>
						</g>
					</g>
				</g>
			</g>
		</g>
	</g>
</g>
</svg>
