<?xml version="1.0" encoding="utf-8"?>
<!-- Generator: Adobe Illustrator 14.0.0, SVG Export Plug-In . SVG Version: 6.00 Build 43363)  -->
<!DOCTYPE svg PUBLIC "-//W3C//DTD SVG 1.1//EN" "http://www.w3.org/Graphics/SVG/1.1/DTD/svg11.dtd">
<svg version="1.1" id="图层_1" xmlns="http://www.w3.org/2000/svg" xmlns:xlink="http://www.w3.org/1999/xlink" x="0px" y="0px"
	 width="20px" height="38px" viewBox="0 0 20 38" enable-background="new 0 0 20 38" xml:space="preserve">
<g>
	<path fill="#B0B0B0" d="M19.278,19.751c-0.416,0.415-1.088,0.415-1.503,0L0.722,2.698c-0.414-0.415-0.414-1.088,0-1.503l0,0
		c0.416-0.415,1.088-0.415,1.503,0l17.054,17.054C19.692,18.663,19.692,19.336,19.278,19.751L19.278,19.751z"/>
	<path fill="#B0B0B0" d="M0.722,36.804c-0.414-0.414-0.414-1.087,0-1.502l17.054-17.053c0.415-0.416,1.087-0.416,1.503,0l0,0
		c0.414,0.414,0.414,1.087,0,1.502L2.225,36.804C1.81,37.22,1.138,37.22,0.722,36.804L0.722,36.804z"/>
</g>
</svg>
