<?xml version="1.0" encoding="utf-8"?>
<!-- Generator: Adobe Illustrator 15.0.0, SVG Export Plug-In . SVG Version: 6.00 Build 0)  -->
<!DOCTYPE svg PUBLIC "-//W3C//DTD SVG 1.1//EN" "http://www.w3.org/Graphics/SVG/1.1/DTD/svg11.dtd">
<svg version="1.1" id="图层_1" xmlns="http://www.w3.org/2000/svg" xmlns:xlink="http://www.w3.org/1999/xlink" x="0px" y="0px"
	 width="38px" height="38px" viewBox="0 0 38 38" enable-background="new 0 0 38 38" xml:space="preserve">
<path fill="#ffffff" d="M36,18.012c0.025,0.384,0.059,0.767,0.059,1.156c0,9.423-7.639,17.062-17.062,17.062
	S1.935,28.591,1.935,19.168S9.574,2.105,18.997,2.105c5.78,0,10.882,2.881,13.966,7.28h-7.934v1.875h9.08h2.147h0.271V0h-1.875
	v8.453c-3.42-4.996-9.146-8.285-15.655-8.285C8.505,0.169,0,8.675,0,19.168C0,29.66,8.505,38.167,18.999,38.167
	c10.492,0,18.999-8.507,18.999-18.999c0-0.39-0.034-0.771-0.059-1.156H36z"/>
</svg>
