<?xml version="1.0" encoding="utf-8"?>
<!-- Generator: Adobe Illustrator 18.1.0, SVG Export Plug-In . SVG Version: 6.00 Build 0)  -->
<svg version="1.1" id="home_拷贝_2_1_" xmlns="http://www.w3.org/2000/svg" xmlns:xlink="http://www.w3.org/1999/xlink" x="0px"
	 y="0px" width="70px" height="50px" viewBox="0 0 70 50" enable-background="new 0 0 70 50" xml:space="preserve">
<g>
	<path fill="none" d="M59.5,9.8H29.6C27.4,9.9,16.5,18,8,25c8.5,7,19.4,15.1,21.6,15.2h29.9c1.3,0,3.2-1.8,3.2-2.9V12.7
		C62.7,11.6,60.8,9.8,59.5,9.8z M50.7,32.1c0.2,0.2,0.3,0.5,0.3,0.8s-0.1,0.6-0.3,0.8c-0.4,0.4-1.1,0.4-1.6,0L42.5,27l-6.6,6.6
		c-0.4,0.4-1.1,0.4-1.6,0c-0.4-0.4-0.4-1.1,0-1.6l6.6-6.6l-6.6-6.6c-0.4-0.4-0.4-1.1,0-1.6c0.4-0.4,1.1-0.4,1.6,0l6.6,6.6l6.6-6.6
		c0.4-0.4,1.1-0.4,1.6,0c0.2,0.2,0.3,0.5,0.3,0.8c0,0.3-0.1,0.6-0.3,0.8l-6.6,6.6L50.7,32.1z"/>
	<path fill="#252525" d="M59.5,8H29.6C25,8,10,20.3,5.5,24c-0.6,0.5-0.6,1.5,0,2C10,29.7,25,42,29.6,42h29.9c3,0,5.5-2.1,5.5-4.7
		V12.7C65,10.1,62.5,8,59.5,8z M62.7,37.3c0,1.1-1.9,2.9-3.2,2.9H29.6C27.4,40.1,16.5,32,8,25c8.5-7,19.4-15.1,21.6-15.2h29.9
		c1.3,0,3.2,1.8,3.2,2.9V37.3z"/>
	<path fill="#252525" d="M51,18.1c0-0.3-0.1-0.6-0.3-0.8c-0.4-0.4-1.1-0.4-1.6,0L42.5,24l-6.6-6.6c-0.4-0.4-1.1-0.4-1.6,0
		c-0.4,0.4-0.4,1.1,0,1.6l6.6,6.6l-6.6,6.6c-0.4,0.4-0.4,1.1,0,1.6c0.4,0.4,1.1,0.4,1.6,0l6.6-6.6l6.6,6.6c0.4,0.4,1.1,0.4,1.6,0
		c0.2-0.2,0.3-0.5,0.3-0.8s-0.1-0.6-0.3-0.8l-6.6-6.6l6.6-6.6C50.9,18.7,51,18.4,51,18.1z"/>
</g>
</svg>
