<?xml version="1.0" encoding="utf-8"?>
<!-- Generator: Adobe Illustrator 18.1.0, SVG Export Plug-In . SVG Version: 6.00 Build 0)  -->
<svg version="1.1" id="图层_1" xmlns="http://www.w3.org/2000/svg" xmlns:xlink="http://www.w3.org/1999/xlink" x="0px" y="0px"
	 viewBox="0 0 50 46" enable-background="new 0 0 50 46" xml:space="preserve">
<g>
	<g>
		<path fill="#8C8A8A" d="M5,19c-2.2,0-4,1.8-4,4c0,2.2,1.8,4,4,4s4-1.8,4-4C9,20.8,7.2,19,5,19z M25,19c-2.2,0-4,1.8-4,4
			c0,2.2,1.8,4,4,4c2.2,0,4-1.8,4-4C29,20.8,27.2,19,25,19z M45,19c-2.2,0-4,1.8-4,4c0,2.2,1.8,4,4,4c2.2,0,4-1.8,4-4
			C49,20.8,47.2,19,45,19z"/>
	</g>
</g>
</svg>
