<?xml version="1.0" encoding="utf-8"?>
<!-- Generator: Adobe Illustrator 18.1.0, SVG Export Plug-In . SVG Version: 6.00 Build 0)  -->
<svg version="1.1" id="图层_1" xmlns="http://www.w3.org/2000/svg" xmlns:xlink="http://www.w3.org/1999/xlink" x="0px" y="0px"
	 viewBox="0 0 46 46" enable-background="new 0 0 46 46" xml:space="preserve">
<g>
	<g>
		<path fill="#FB4A46" d="M40.1,4h-34c-2.2,0-4,1.8-4,4v30c0,2.2,1.8,4,4,4h34c2.2,0,4-1.8,4-4V8C44.1,5.8,42.3,4,40.1,4z M42.1,36
			c0,2.2-1.8,4-4,4h-30c-2.2,0-4-1.8-4-4V10c0-2.2,1.8-4,4-4h30c2.2,0,4,1.8,4,4V36z M38,8.8L23.2,23.7L8.4,8.9
			C7.8,8.3,7,8.1,6.7,8.5C6.3,8.9,6.4,9.7,7,10.2l14.8,14.8c0.5,0.5,1,0.6,1.4,0.5c0.4,0,0.9-0.2,1.3-0.6l14.8-14.8
			c0.6-0.6,0.8-1.4,0.4-1.8C39.4,8.1,38.6,8.3,38,8.8z"/>
	</g>
</g>
</svg>
