<?xml version="1.0" encoding="utf-8"?>
<!-- Generator: Adobe Illustrator 18.1.0, SVG Export Plug-In . SVG Version: 6.00 Build 0)  -->
<svg version="1.1" id="图层_1" xmlns="http://www.w3.org/2000/svg" xmlns:xlink="http://www.w3.org/1999/xlink" x="0px" y="0px"
	 viewBox="0 0 46 46" enable-background="new 0 0 46 46" xml:space="preserve">
<g>
	<g>
		<path fill-rule="evenodd" clip-rule="evenodd" fill="#626262" d="M37.1,22c-1.7,0-3,1.3-3,3s1.3,3,3,3s3-1.3,3-3S38.8,22,37.1,22z
			 M8.1,22c-1.7,0-3,1.3-3,3s1.3,3,3,3s3-1.3,3-3S9.8,22,8.1,22z M22.6,22c-1.7,0-3,1.3-3,3s1.3,3,3,3c1.7,0,3-1.3,3-3
			S24.3,22,22.6,22z"/>
	</g>
</g>
</svg>
