<svg width="20" height="38" xmlns="http://www.w3.org/2000/svg">

 <g>
  <title>background</title>
  <rect fill="none" id="canvas_background" height="402" width="582" y="-1" x="-1"/>
 </g>
 <g>
  <title>Layer 1</title>
  <g stroke="null" id="svg_1">
   <path stroke="null" id="svg_2" d="m0.112925,19.751c0.420936,0.415 1.100909,0.415 1.520833,0l17.255329,-17.053c0.418912,-0.415 0.418912,-1.088 0,-1.503l0,0c-0.420936,-0.415 -1.100909,-0.415 -1.520833,0l-17.256341,17.054c-0.4179,0.414 -0.4179,1.087 0.001012,1.502l0,0z" fill="#868686"/>
   <path stroke="null" id="svg_3" d="m18.889087,36.804c0.418912,-0.414 0.418912,-1.087 0,-1.502l-17.256341,-17.053c-0.419924,-0.416 -1.099897,-0.416 -1.520833,0l0,0c-0.418912,0.414 -0.418912,1.087 0,1.502l17.256341,17.053c0.419924,0.416 1.099897,0.416 1.520833,0l0,0z" fill="#868686"/>
  </g>
 </g>
</svg>
