<?xml version="1.0" encoding="utf-8"?>
<!-- Generator: Adobe Illustrator 16.0.0, SVG Export Plug-In . SVG Version: 6.00 Build 0)  -->
<!DOCTYPE svg PUBLIC "-//W3C//DTD SVG 1.1//EN" "http://www.w3.org/Graphics/SVG/1.1/DTD/svg11.dtd">
<svg version="1.1" id="图层_1" xmlns="http://www.w3.org/2000/svg" xmlns:xlink="http://www.w3.org/1999/xlink" x="0px" y="0px"
	 width="100px" height="122px" viewBox="0 0 100 122" enable-background="new 0 0 100 122" xml:space="preserve">
<g>
	<path fill-rule="evenodd" clip-rule="evenodd" fill="#DBDBDB" d="M69,1h6v29h-6V1z"/>
	<path fill-rule="evenodd" clip-rule="evenodd" fill="#DBDBDB" d="M69,24h29v6H69V24z"/>
	<path fill-rule="evenodd" clip-rule="evenodd" fill="#DBDBDB" d="M1,1h74v6H1V1z"/>
	<path fill-rule="evenodd" clip-rule="evenodd" fill="#DBDBDB" d="M1,1h6v120H1V1z"/>
	<path fill-rule="evenodd" clip-rule="evenodd" fill="#DBDBDB" d="M1,115h98v6H1V115z"/>
	<path fill-rule="evenodd" clip-rule="evenodd" fill="#DBDBDB" d="M93,24h6v97h-6V24z"/>
	<path fill-rule="evenodd" clip-rule="evenodd" fill="#DBDBDB" d="M70.757,5.243L75,1l24,23l-4.243,4.243L70.757,5.243z"/>
	<path fill-rule="evenodd" clip-rule="evenodd" fill="#DBDBDB" d="M14,23h46v6H14V23z"/>
	<path fill-rule="evenodd" clip-rule="evenodd" fill="#DBDBDB" d="M14,42h72v6H14V42z"/>
	<path fill-rule="evenodd" clip-rule="evenodd" fill="#DBDBDB" d="M14,61h72v6H14V61z"/>
	<path fill-rule="evenodd" clip-rule="evenodd" fill="#DBDBDB" d="M14,81h72v6H14V81z"/>
	<path fill-rule="evenodd" clip-rule="evenodd" fill="#DBDBDB" d="M14,99h72v6H14V99z"/>
</g>
</svg>
