<?xml version="1.0" encoding="utf-8"?>
<!-- Generator: Adobe Illustrator 15.0.0, SVG Export Plug-In . SVG Version: 6.00 Build 0)  -->
<!DOCTYPE svg PUBLIC "-//W3C//DTD SVG 1.1//EN" "http://www.w3.org/Graphics/SVG/1.1/DTD/svg11.dtd">
<svg version="1.1" id="图层_1" xmlns="http://www.w3.org/2000/svg" xmlns:xlink="http://www.w3.org/1999/xlink" x="0px" y="0px"
	 width="70px" height="60px" viewBox="0 0 70 60" enable-background="new 0 0 70 60" xml:space="preserve">
<style type="text/css">
<![CDATA[
	.strokeColor{fill:white;}
]]>
</style>
<path class="strokeColor" d="M57.992,47.882L45.488,37.461c-0.034-0.034-0.076-0.058-0.111-0.09c2.455-3.495,3.785-7.815,3.481-12.408
	c-0.706-10.68-9.938-18.767-20.62-18.061C17.557,7.609,9.471,16.841,10.177,27.521c0.707,10.682,9.938,18.768,20.619,18.061
	c3.872-0.256,7.394-1.644,10.29-3.803c0.027,0.029,0.047,0.064,0.076,0.093l12.504,10.42c0.562,0.548,1.275,0.841,2,0.88
	c0.854,0.044,1.724-0.264,2.369-0.922C59.23,51.032,59.211,49.076,57.992,47.882z M13.464,27.304
	c-0.585-8.851,6.14-16.527,14.992-17.113C37.308,9.605,44.985,16.33,45.57,25.18c0.586,8.852-6.139,16.529-14.991,17.115
	C21.727,42.88,14.05,36.155,13.464,27.304z"/>
</svg>
